%TF.GenerationSoftware,KiCad,Pcbnew,(6.0.5)*%
%TF.CreationDate,2022-08-06T18:20:51-04:00*%
%TF.ProjectId,effects-switcher,65666665-6374-4732-9d73-776974636865,rev?*%
%TF.SameCoordinates,Original*%
%TF.FileFunction,Soldermask,Top*%
%TF.FilePolarity,Negative*%
%FSLAX46Y46*%
G04 Gerber Fmt 4.6, Leading zero omitted, Abs format (unit mm)*
G04 Created by KiCad (PCBNEW (6.0.5)) date 2022-08-06 18:20:51*
%MOMM*%
%LPD*%
G01*
G04 APERTURE LIST*
G04 Aperture macros list*
%AMRoundRect*
0 Rectangle with rounded corners*
0 $1 Rounding radius*
0 $2 $3 $4 $5 $6 $7 $8 $9 X,Y pos of 4 corners*
0 Add a 4 corners polygon primitive as box body*
4,1,4,$2,$3,$4,$5,$6,$7,$8,$9,$2,$3,0*
0 Add four circle primitives for the rounded corners*
1,1,$1+$1,$2,$3*
1,1,$1+$1,$4,$5*
1,1,$1+$1,$6,$7*
1,1,$1+$1,$8,$9*
0 Add four rect primitives between the rounded corners*
20,1,$1+$1,$2,$3,$4,$5,0*
20,1,$1+$1,$4,$5,$6,$7,0*
20,1,$1+$1,$6,$7,$8,$9,0*
20,1,$1+$1,$8,$9,$2,$3,0*%
G04 Aperture macros list end*
%ADD10R,2.200000X2.200000*%
%ADD11O,2.200000X2.200000*%
%ADD12R,1.800000X1.800000*%
%ADD13C,1.800000*%
%ADD14C,1.400000*%
%ADD15O,1.400000X1.400000*%
%ADD16R,3.500000X3.500000*%
%ADD17RoundRect,0.750000X-1.000000X0.750000X-1.000000X-0.750000X1.000000X-0.750000X1.000000X0.750000X0*%
%ADD18RoundRect,0.875000X-0.875000X0.875000X-0.875000X-0.875000X0.875000X-0.875000X0.875000X0.875000X0*%
%ADD19C,3.000000*%
%ADD20R,1.500000X1.050000*%
%ADD21O,1.500000X1.050000*%
%ADD22RoundRect,0.250500X0.499500X0.499500X-0.499500X0.499500X-0.499500X-0.499500X0.499500X-0.499500X0*%
%ADD23C,1.500000*%
%ADD24RoundRect,0.250000X-0.600000X-0.750000X0.600000X-0.750000X0.600000X0.750000X-0.600000X0.750000X0*%
%ADD25O,1.700000X2.000000*%
%ADD26R,1.600000X1.600000*%
%ADD27C,1.600000*%
%ADD28R,2.000000X1.905000*%
%ADD29O,2.000000X1.905000*%
G04 APERTURE END LIST*
D10*
%TO.C,D13*%
X234015000Y-16920000D03*
D11*
X234015000Y-27080000D03*
%TD*%
D12*
%TO.C,D9*%
X178015000Y-37000000D03*
D13*
X180555000Y-37000000D03*
%TD*%
D14*
%TO.C,R1*%
X4015000Y-32000000D03*
D15*
X4015000Y-37080000D03*
%TD*%
D16*
%TO.C,J+9*%
X240957500Y-14000000D03*
D17*
X240957500Y-8000000D03*
D18*
X236257500Y-11000000D03*
%TD*%
D19*
%TO.C,J6*%
X107900000Y-10650000D03*
X124130000Y-10650000D03*
X107900000Y-4300000D03*
X124130000Y-4300000D03*
X107900000Y-17000000D03*
X124130000Y-17000000D03*
%TD*%
%TO.C,J1*%
X2900000Y-10650000D03*
X19130000Y-10650000D03*
X2900000Y-4300000D03*
X19130000Y-4300000D03*
X2900000Y-17000000D03*
X19130000Y-17000000D03*
%TD*%
D10*
%TO.C,D4*%
X49015000Y-30000000D03*
D11*
X49015000Y-37620000D03*
%TD*%
D20*
%TO.C,Q3*%
X95015000Y-30000000D03*
D21*
X95015000Y-31270000D03*
X95015000Y-32540000D03*
%TD*%
D22*
%TO.C,K1*%
X24015000Y-37000000D03*
D23*
X24015000Y-31920000D03*
X24015000Y-29380000D03*
X24015000Y-26840000D03*
X18935000Y-26840000D03*
X18935000Y-29380000D03*
X18935000Y-31920000D03*
X18935000Y-37000000D03*
%TD*%
D20*
%TO.C,Q4*%
X137015000Y-30000000D03*
D21*
X137015000Y-31270000D03*
X137015000Y-32540000D03*
%TD*%
D24*
%TO.C,J+5*%
X234000000Y-36000000D03*
D25*
X236500000Y-36000000D03*
%TD*%
D14*
%TO.C,R3*%
X60015000Y-32000000D03*
D15*
X60015000Y-37080000D03*
%TD*%
D14*
%TO.C,R9*%
X186015000Y-32000000D03*
D15*
X186015000Y-37080000D03*
%TD*%
D20*
%TO.C,Q2*%
X53015000Y-30000000D03*
D21*
X53015000Y-31270000D03*
X53015000Y-32540000D03*
%TD*%
D22*
%TO.C,K5*%
X171015000Y-37000000D03*
D23*
X171015000Y-31920000D03*
X171015000Y-29380000D03*
X171015000Y-26840000D03*
X165935000Y-26840000D03*
X165935000Y-29380000D03*
X165935000Y-31920000D03*
X165935000Y-37000000D03*
%TD*%
D14*
%TO.C,R5*%
X102015000Y-32000000D03*
D15*
X102015000Y-37080000D03*
%TD*%
D26*
%TO.C,C2*%
X239520348Y-27447932D03*
D27*
X239520348Y-24947932D03*
%TD*%
D10*
%TO.C,D12*%
X217015000Y-30000000D03*
D11*
X217015000Y-37620000D03*
%TD*%
D22*
%TO.C,K3*%
X87015000Y-37000000D03*
D23*
X87015000Y-31920000D03*
X87015000Y-29380000D03*
X87015000Y-26840000D03*
X81935000Y-26840000D03*
X81935000Y-29380000D03*
X81935000Y-31920000D03*
X81935000Y-37000000D03*
%TD*%
D14*
%TO.C,R4*%
X57015000Y-32000000D03*
D15*
X57015000Y-37080000D03*
%TD*%
D20*
%TO.C,Q1*%
X11015000Y-30000000D03*
D21*
X11015000Y-31270000D03*
X11015000Y-32540000D03*
%TD*%
D14*
%TO.C,R10*%
X183015000Y-32000000D03*
D15*
X183015000Y-37080000D03*
%TD*%
D22*
%TO.C,K6*%
X213015000Y-37000000D03*
D23*
X213015000Y-31920000D03*
X213015000Y-29380000D03*
X213015000Y-26840000D03*
X207935000Y-26840000D03*
X207935000Y-29380000D03*
X207935000Y-31920000D03*
X207935000Y-37000000D03*
%TD*%
D19*
%TO.C,J3*%
X44900000Y-10650000D03*
X61130000Y-10650000D03*
X44900000Y-4300000D03*
X61130000Y-4300000D03*
X44900000Y-17000000D03*
X61130000Y-17000000D03*
%TD*%
D22*
%TO.C,K2*%
X45015000Y-37000000D03*
D23*
X45015000Y-31920000D03*
X45015000Y-29380000D03*
X45015000Y-26840000D03*
X39935000Y-26840000D03*
X39935000Y-29380000D03*
X39935000Y-31920000D03*
X39935000Y-37000000D03*
%TD*%
D20*
%TO.C,Q6*%
X221015000Y-30000000D03*
D21*
X221015000Y-31270000D03*
X221015000Y-32540000D03*
%TD*%
D19*
%TO.C,J7*%
X128900000Y-10650000D03*
X145130000Y-10650000D03*
X128900000Y-4300000D03*
X145130000Y-4300000D03*
X128900000Y-17000000D03*
X145130000Y-17000000D03*
%TD*%
%TO.C,J4*%
X65900000Y-10650000D03*
X82130000Y-10650000D03*
X65900000Y-4300000D03*
X82130000Y-4300000D03*
X65900000Y-17000000D03*
X82130000Y-17000000D03*
%TD*%
D14*
%TO.C,R8*%
X141015000Y-32000000D03*
D15*
X141015000Y-37080000D03*
%TD*%
D14*
%TO.C,R11*%
X228015000Y-32000000D03*
D15*
X228015000Y-37080000D03*
%TD*%
D24*
%TO.C,J56*%
X194500000Y-36000000D03*
D25*
X197000000Y-36000000D03*
%TD*%
D19*
%TO.C,J5*%
X86900000Y-10650000D03*
X103130000Y-10650000D03*
X86900000Y-4300000D03*
X103130000Y-4300000D03*
X86900000Y-17000000D03*
X103130000Y-17000000D03*
%TD*%
D10*
%TO.C,D10*%
X175015000Y-30000000D03*
D11*
X175015000Y-37620000D03*
%TD*%
D19*
%TO.C,J9*%
X170900000Y-10650000D03*
X187130000Y-10650000D03*
X170900000Y-4300000D03*
X187130000Y-4300000D03*
X170900000Y-17000000D03*
X187130000Y-17000000D03*
%TD*%
D10*
%TO.C,D2*%
X15515000Y-30000000D03*
D11*
X15515000Y-37620000D03*
%TD*%
D19*
%TO.C,J10*%
X191900000Y-10650000D03*
X208130000Y-10650000D03*
X191900000Y-4300000D03*
X208130000Y-4300000D03*
X191900000Y-17000000D03*
X208130000Y-17000000D03*
%TD*%
D28*
%TO.C,U1*%
X245083864Y-19857857D03*
D29*
X245083864Y-22397857D03*
X245083864Y-24937857D03*
%TD*%
D14*
%TO.C,R7*%
X144015000Y-32000000D03*
D15*
X144015000Y-37080000D03*
%TD*%
D19*
%TO.C,J11*%
X212900000Y-10650000D03*
X229130000Y-10650000D03*
X212900000Y-4300000D03*
X229130000Y-4300000D03*
X212900000Y-17000000D03*
X229130000Y-17000000D03*
%TD*%
D12*
%TO.C,D3*%
X52015000Y-37000000D03*
D13*
X54555000Y-37000000D03*
%TD*%
D24*
%TO.C,J34*%
X110000000Y-36000000D03*
D25*
X112500000Y-36000000D03*
%TD*%
D26*
%TO.C,C1*%
X238363198Y-19786801D03*
D27*
X240863198Y-19786801D03*
%TD*%
D22*
%TO.C,K4*%
X129015000Y-37000000D03*
D23*
X129015000Y-31920000D03*
X129015000Y-29380000D03*
X129015000Y-26840000D03*
X123935000Y-26840000D03*
X123935000Y-29380000D03*
X123935000Y-31920000D03*
X123935000Y-37000000D03*
%TD*%
D12*
%TO.C,D1*%
X10015000Y-37000000D03*
D13*
X12555000Y-37000000D03*
%TD*%
D14*
%TO.C,R2*%
X7015000Y-32000000D03*
D15*
X7015000Y-37080000D03*
%TD*%
D19*
%TO.C,J8*%
X149900000Y-10650000D03*
X166130000Y-10650000D03*
X149900000Y-4300000D03*
X166130000Y-4300000D03*
X149900000Y-17000000D03*
X166130000Y-17000000D03*
%TD*%
D10*
%TO.C,D8*%
X133015000Y-30000000D03*
D11*
X133015000Y-37620000D03*
%TD*%
D10*
%TO.C,D6*%
X91015000Y-30000000D03*
D11*
X91015000Y-37620000D03*
%TD*%
D12*
%TO.C,D7*%
X136015000Y-37000000D03*
D13*
X138555000Y-37000000D03*
%TD*%
D14*
%TO.C,R6*%
X99015000Y-32000000D03*
D15*
X99015000Y-37080000D03*
%TD*%
D12*
%TO.C,D11*%
X220015000Y-37460000D03*
D13*
X222555000Y-37460000D03*
%TD*%
D20*
%TO.C,Q5*%
X179015000Y-30000000D03*
D21*
X179015000Y-31270000D03*
X179015000Y-32540000D03*
%TD*%
D24*
%TO.C,J12*%
X30500000Y-36000000D03*
D25*
X33000000Y-36000000D03*
%TD*%
D19*
%TO.C,J2*%
X23900000Y-10650000D03*
X40130000Y-10650000D03*
X23900000Y-4300000D03*
X40130000Y-4300000D03*
X23900000Y-17000000D03*
X40130000Y-17000000D03*
%TD*%
D14*
%TO.C,R12*%
X225015000Y-32000000D03*
D15*
X225015000Y-37080000D03*
%TD*%
D12*
%TO.C,D5*%
X94015000Y-37000000D03*
D13*
X96555000Y-37000000D03*
%TD*%
M02*
