%TF.GenerationSoftware,KiCad,Pcbnew,(6.0.5)*%
%TF.CreationDate,2022-08-04T22:32:12-04:00*%
%TF.ProjectId,effects-switcher,65666665-6374-4732-9d73-776974636865,rev?*%
%TF.SameCoordinates,Original*%
%TF.FileFunction,Legend,Top*%
%TF.FilePolarity,Positive*%
%FSLAX46Y46*%
G04 Gerber Fmt 4.6, Leading zero omitted, Abs format (unit mm)*
G04 Created by KiCad (PCBNEW (6.0.5)) date 2022-08-04 22:32:12*
%MOMM*%
%LPD*%
G01*
G04 APERTURE LIST*
%ADD10C,0.150000*%
%ADD11C,0.120000*%
G04 APERTURE END LIST*
D10*
X248738095Y-2452380D02*
X248928571Y-2452380D01*
X249023809Y-2404761D01*
X249071428Y-2357142D01*
X249166666Y-2214285D01*
X249214285Y-2023809D01*
X249214285Y-1642857D01*
X249166666Y-1547619D01*
X249119047Y-1500000D01*
X249023809Y-1452380D01*
X248833333Y-1452380D01*
X248738095Y-1500000D01*
X248690476Y-1547619D01*
X248642857Y-1642857D01*
X248642857Y-1880952D01*
X248690476Y-1976190D01*
X248738095Y-2023809D01*
X248833333Y-2071428D01*
X249023809Y-2071428D01*
X249119047Y-2023809D01*
X249166666Y-1976190D01*
X249214285Y-1880952D01*
X249500000Y-1452380D02*
X249833333Y-2452380D01*
X250166666Y-1452380D01*
X251452380Y-1452380D02*
X251642857Y-1452380D01*
X251738095Y-1500000D01*
X251833333Y-1595238D01*
X251880952Y-1785714D01*
X251880952Y-2119047D01*
X251833333Y-2309523D01*
X251738095Y-2404761D01*
X251642857Y-2452380D01*
X251452380Y-2452380D01*
X251357142Y-2404761D01*
X251261904Y-2309523D01*
X251214285Y-2119047D01*
X251214285Y-1785714D01*
X251261904Y-1595238D01*
X251357142Y-1500000D01*
X251452380Y-1452380D01*
X252738095Y-1785714D02*
X252738095Y-2452380D01*
X252309523Y-1785714D02*
X252309523Y-2309523D01*
X252357142Y-2404761D01*
X252452380Y-2452380D01*
X252595238Y-2452380D01*
X252690476Y-2404761D01*
X252738095Y-2357142D01*
X253071428Y-1785714D02*
X253452380Y-1785714D01*
X253214285Y-1452380D02*
X253214285Y-2309523D01*
X253261904Y-2404761D01*
X253357142Y-2452380D01*
X253452380Y-2452380D01*
X231886688Y-33267335D02*
X232648593Y-33267335D01*
X232267641Y-33648287D02*
X232267641Y-32886383D01*
X233600974Y-32648287D02*
X233124784Y-32648287D01*
X233077165Y-33124478D01*
X233124784Y-33076859D01*
X233220022Y-33029240D01*
X233458117Y-33029240D01*
X233553355Y-33076859D01*
X233600974Y-33124478D01*
X233648593Y-33219716D01*
X233648593Y-33457811D01*
X233600974Y-33553049D01*
X233553355Y-33600668D01*
X233458117Y-33648287D01*
X233220022Y-33648287D01*
X233124784Y-33600668D01*
X233077165Y-33553049D01*
X233934307Y-32648287D02*
X234267641Y-33648287D01*
X234600974Y-32648287D01*
X235696212Y-33648287D02*
X235696212Y-32648287D01*
X235934307Y-32648287D01*
X236077165Y-32695907D01*
X236172403Y-32791145D01*
X236220022Y-32886383D01*
X236267641Y-33076859D01*
X236267641Y-33219716D01*
X236220022Y-33410192D01*
X236172403Y-33505430D01*
X236077165Y-33600668D01*
X235934307Y-33648287D01*
X235696212Y-33648287D01*
X237220022Y-32695907D02*
X237124784Y-32648287D01*
X236981926Y-32648287D01*
X236839069Y-32695907D01*
X236743831Y-32791145D01*
X236696212Y-32886383D01*
X236648593Y-33076859D01*
X236648593Y-33219716D01*
X236696212Y-33410192D01*
X236743831Y-33505430D01*
X236839069Y-33600668D01*
X236981926Y-33648287D01*
X237077165Y-33648287D01*
X237220022Y-33600668D01*
X237267641Y-33553049D01*
X237267641Y-33219716D01*
X237077165Y-33219716D01*
X237696212Y-33648287D02*
X237696212Y-32648287D01*
X238267641Y-33648287D01*
X238267641Y-32648287D01*
X238743831Y-33648287D02*
X238743831Y-32648287D01*
X238981926Y-32648287D01*
X239124784Y-32695907D01*
X239220022Y-32791145D01*
X239267641Y-32886383D01*
X239315260Y-33076859D01*
X239315260Y-33219716D01*
X239267641Y-33410192D01*
X239220022Y-33505430D01*
X239124784Y-33600668D01*
X238981926Y-33648287D01*
X238743831Y-33648287D01*
X30795645Y-33409352D02*
X30224216Y-33409352D01*
X30509930Y-33409352D02*
X30509930Y-32409352D01*
X30414692Y-32552210D01*
X30319454Y-32647448D01*
X30224216Y-32695067D01*
X32700406Y-32504591D02*
X32748026Y-32456972D01*
X32843264Y-32409352D01*
X33081359Y-32409352D01*
X33176597Y-32456972D01*
X33224216Y-32504591D01*
X33271835Y-32599829D01*
X33271835Y-32695067D01*
X33224216Y-32837924D01*
X32652787Y-33409352D01*
X33271835Y-33409352D01*
X194765865Y-32527307D02*
X194289674Y-32527307D01*
X194242055Y-33003498D01*
X194289674Y-32955879D01*
X194384912Y-32908260D01*
X194623007Y-32908260D01*
X194718245Y-32955879D01*
X194765865Y-33003498D01*
X194813484Y-33098736D01*
X194813484Y-33336831D01*
X194765865Y-33432069D01*
X194718245Y-33479688D01*
X194623007Y-33527307D01*
X194384912Y-33527307D01*
X194289674Y-33479688D01*
X194242055Y-33432069D01*
X197194436Y-32527307D02*
X197003960Y-32527307D01*
X196908722Y-32574927D01*
X196861103Y-32622546D01*
X196765865Y-32765403D01*
X196718245Y-32955879D01*
X196718245Y-33336831D01*
X196765865Y-33432069D01*
X196813484Y-33479688D01*
X196908722Y-33527307D01*
X197099198Y-33527307D01*
X197194436Y-33479688D01*
X197242055Y-33432069D01*
X197289674Y-33336831D01*
X197289674Y-33098736D01*
X197242055Y-33003498D01*
X197194436Y-32955879D01*
X197099198Y-32908260D01*
X196908722Y-32908260D01*
X196813484Y-32955879D01*
X196765865Y-33003498D01*
X196718245Y-33098736D01*
X237309523Y-2452380D02*
X237500000Y-2452380D01*
X237595238Y-2404761D01*
X237642857Y-2357142D01*
X237738095Y-2214285D01*
X237785714Y-2023809D01*
X237785714Y-1642857D01*
X237738095Y-1547619D01*
X237690476Y-1500000D01*
X237595238Y-1452380D01*
X237404761Y-1452380D01*
X237309523Y-1500000D01*
X237261904Y-1547619D01*
X237214285Y-1642857D01*
X237214285Y-1880952D01*
X237261904Y-1976190D01*
X237309523Y-2023809D01*
X237404761Y-2071428D01*
X237595238Y-2071428D01*
X237690476Y-2023809D01*
X237738095Y-1976190D01*
X237785714Y-1880952D01*
X238071428Y-1452380D02*
X238404761Y-2452380D01*
X238738095Y-1452380D01*
X239833333Y-2452380D02*
X239833333Y-1452380D01*
X240309523Y-1785714D02*
X240309523Y-2452380D01*
X240309523Y-1880952D02*
X240357142Y-1833333D01*
X240452380Y-1785714D01*
X240595238Y-1785714D01*
X240690476Y-1833333D01*
X240738095Y-1928571D01*
X240738095Y-2452380D01*
X109632851Y-32460769D02*
X110251899Y-32460769D01*
X109918565Y-32841722D01*
X110061422Y-32841722D01*
X110156660Y-32889341D01*
X110204280Y-32936960D01*
X110251899Y-33032198D01*
X110251899Y-33270293D01*
X110204280Y-33365531D01*
X110156660Y-33413150D01*
X110061422Y-33460769D01*
X109775708Y-33460769D01*
X109680470Y-33413150D01*
X109632851Y-33365531D01*
X112632851Y-32794103D02*
X112632851Y-33460769D01*
X112394756Y-32413150D02*
X112156660Y-33127436D01*
X112775708Y-33127436D01*
X90395952Y-1452380D02*
X90395952Y-2166666D01*
X90348333Y-2309523D01*
X90253095Y-2404761D01*
X90110238Y-2452380D01*
X90015000Y-2452380D01*
X91348333Y-2452380D02*
X90872142Y-2452380D01*
X90872142Y-1452380D01*
X92253095Y-2357142D02*
X92205476Y-2404761D01*
X92062619Y-2452380D01*
X91967380Y-2452380D01*
X91824523Y-2404761D01*
X91729285Y-2309523D01*
X91681666Y-2214285D01*
X91634047Y-2023809D01*
X91634047Y-1880952D01*
X91681666Y-1690476D01*
X91729285Y-1595238D01*
X91824523Y-1500000D01*
X91967380Y-1452380D01*
X92062619Y-1452380D01*
X92205476Y-1500000D01*
X92253095Y-1547619D01*
X92967380Y-1452380D02*
X92967380Y-2166666D01*
X92919761Y-2309523D01*
X92824523Y-2404761D01*
X92681666Y-2452380D01*
X92586428Y-2452380D01*
X93919761Y-2452380D02*
X93443571Y-2452380D01*
X93443571Y-1452380D01*
X94824523Y-2357142D02*
X94776904Y-2404761D01*
X94634047Y-2452380D01*
X94538809Y-2452380D01*
X94395952Y-2404761D01*
X94300714Y-2309523D01*
X94253095Y-2214285D01*
X94205476Y-2023809D01*
X94205476Y-1880952D01*
X94253095Y-1690476D01*
X94300714Y-1595238D01*
X94395952Y-1500000D01*
X94538809Y-1452380D01*
X94634047Y-1452380D01*
X94776904Y-1500000D01*
X94824523Y-1547619D01*
X95538809Y-1452380D02*
X95538809Y-2166666D01*
X95491190Y-2309523D01*
X95395952Y-2404761D01*
X95253095Y-2452380D01*
X95157857Y-2452380D01*
X96491190Y-2452380D02*
X96015000Y-2452380D01*
X96015000Y-1452380D01*
X97395952Y-2357142D02*
X97348333Y-2404761D01*
X97205476Y-2452380D01*
X97110238Y-2452380D01*
X96967380Y-2404761D01*
X96872142Y-2309523D01*
X96824523Y-2214285D01*
X96776904Y-2023809D01*
X96776904Y-1880952D01*
X96824523Y-1690476D01*
X96872142Y-1595238D01*
X96967380Y-1500000D01*
X97110238Y-1452380D01*
X97205476Y-1452380D01*
X97348333Y-1500000D01*
X97395952Y-1547619D01*
X98110238Y-1452380D02*
X98110238Y-2166666D01*
X98062619Y-2309523D01*
X97967380Y-2404761D01*
X97824523Y-2452380D01*
X97729285Y-2452380D01*
X99062619Y-2452380D02*
X98586428Y-2452380D01*
X98586428Y-1452380D01*
X99967380Y-2357142D02*
X99919761Y-2404761D01*
X99776904Y-2452380D01*
X99681666Y-2452380D01*
X99538809Y-2404761D01*
X99443571Y-2309523D01*
X99395952Y-2214285D01*
X99348333Y-2023809D01*
X99348333Y-1880952D01*
X99395952Y-1690476D01*
X99443571Y-1595238D01*
X99538809Y-1500000D01*
X99681666Y-1452380D01*
X99776904Y-1452380D01*
X99919761Y-1500000D01*
X99967380Y-1547619D01*
%TO.C,D13*%
X234467380Y-23214285D02*
X233467380Y-23214285D01*
X233467380Y-22976190D01*
X233515000Y-22833333D01*
X233610238Y-22738095D01*
X233705476Y-22690476D01*
X233895952Y-22642857D01*
X234038809Y-22642857D01*
X234229285Y-22690476D01*
X234324523Y-22738095D01*
X234419761Y-22833333D01*
X234467380Y-22976190D01*
X234467380Y-23214285D01*
X234467380Y-21690476D02*
X234467380Y-22261904D01*
X234467380Y-21976190D02*
X233467380Y-21976190D01*
X233610238Y-22071428D01*
X233705476Y-22166666D01*
X233753095Y-22261904D01*
X233467380Y-21357142D02*
X233467380Y-20738095D01*
X233848333Y-21071428D01*
X233848333Y-20928571D01*
X233895952Y-20833333D01*
X233943571Y-20785714D01*
X234038809Y-20738095D01*
X234276904Y-20738095D01*
X234372142Y-20785714D01*
X234419761Y-20833333D01*
X234467380Y-20928571D01*
X234467380Y-21214285D01*
X234419761Y-21309523D01*
X234372142Y-21357142D01*
%TO.C,R1*%
X4467380Y-34706666D02*
X3991190Y-35040000D01*
X4467380Y-35278095D02*
X3467380Y-35278095D01*
X3467380Y-34897142D01*
X3515000Y-34801904D01*
X3562619Y-34754285D01*
X3657857Y-34706666D01*
X3800714Y-34706666D01*
X3895952Y-34754285D01*
X3943571Y-34801904D01*
X3991190Y-34897142D01*
X3991190Y-35278095D01*
X4467380Y-33754285D02*
X4467380Y-34325714D01*
X4467380Y-34040000D02*
X3467380Y-34040000D01*
X3610238Y-34135238D01*
X3705476Y-34230476D01*
X3753095Y-34325714D01*
%TO.C,L2-In*%
X116452380Y-12126190D02*
X116452380Y-12602380D01*
X115452380Y-12602380D01*
X115547619Y-11840476D02*
X115500000Y-11792857D01*
X115452380Y-11697619D01*
X115452380Y-11459523D01*
X115500000Y-11364285D01*
X115547619Y-11316666D01*
X115642857Y-11269047D01*
X115738095Y-11269047D01*
X115880952Y-11316666D01*
X116452380Y-11888095D01*
X116452380Y-11269047D01*
X116071428Y-10840476D02*
X116071428Y-10078571D01*
X116452380Y-9602380D02*
X115452380Y-9602380D01*
X115785714Y-9126190D02*
X116452380Y-9126190D01*
X115880952Y-9126190D02*
X115833333Y-9078571D01*
X115785714Y-8983333D01*
X115785714Y-8840476D01*
X115833333Y-8745238D01*
X115928571Y-8697619D01*
X116452380Y-8697619D01*
%TO.C,In*%
X11452380Y-11102380D02*
X10452380Y-11102380D01*
X10785714Y-10626190D02*
X11452380Y-10626190D01*
X10880952Y-10626190D02*
X10833333Y-10578571D01*
X10785714Y-10483333D01*
X10785714Y-10340476D01*
X10833333Y-10245238D01*
X10928571Y-10197619D01*
X11452380Y-10197619D01*
%TO.C,D4*%
X49509592Y-34906447D02*
X48509592Y-34906447D01*
X48509592Y-34668352D01*
X48557212Y-34525494D01*
X48652450Y-34430256D01*
X48747688Y-34382637D01*
X48938164Y-34335018D01*
X49081021Y-34335018D01*
X49271497Y-34382637D01*
X49366735Y-34430256D01*
X49461973Y-34525494D01*
X49509592Y-34668352D01*
X49509592Y-34906447D01*
X48842926Y-33477875D02*
X49509592Y-33477875D01*
X48461973Y-33715971D02*
X49176259Y-33954066D01*
X49176259Y-33335018D01*
%TO.C,Q3*%
X97292524Y-31346675D02*
X97244905Y-31441913D01*
X97149666Y-31537151D01*
X97006809Y-31680008D01*
X96959190Y-31775246D01*
X96959190Y-31870484D01*
X97197285Y-31822865D02*
X97149666Y-31918103D01*
X97054428Y-32013341D01*
X96863952Y-32060960D01*
X96530619Y-32060960D01*
X96340143Y-32013341D01*
X96244905Y-31918103D01*
X96197285Y-31822865D01*
X96197285Y-31632389D01*
X96244905Y-31537151D01*
X96340143Y-31441913D01*
X96530619Y-31394294D01*
X96863952Y-31394294D01*
X97054428Y-31441913D01*
X97149666Y-31537151D01*
X97197285Y-31632389D01*
X97197285Y-31822865D01*
X96197285Y-31060960D02*
X96197285Y-30441913D01*
X96578238Y-30775246D01*
X96578238Y-30632389D01*
X96625857Y-30537151D01*
X96673476Y-30489532D01*
X96768714Y-30441913D01*
X97006809Y-30441913D01*
X97102047Y-30489532D01*
X97149666Y-30537151D01*
X97197285Y-30632389D01*
X97197285Y-30918103D01*
X97149666Y-31013341D01*
X97102047Y-31060960D01*
%TO.C,Bypass*%
X19161190Y-33928571D02*
X19304047Y-33976190D01*
X19351666Y-34023809D01*
X19399285Y-34119047D01*
X19399285Y-34261904D01*
X19351666Y-34357142D01*
X19304047Y-34404761D01*
X19208809Y-34452380D01*
X18827857Y-34452380D01*
X18827857Y-33452380D01*
X19161190Y-33452380D01*
X19256428Y-33500000D01*
X19304047Y-33547619D01*
X19351666Y-33642857D01*
X19351666Y-33738095D01*
X19304047Y-33833333D01*
X19256428Y-33880952D01*
X19161190Y-33928571D01*
X18827857Y-33928571D01*
X19732619Y-33785714D02*
X19970714Y-34452380D01*
X20208809Y-33785714D02*
X19970714Y-34452380D01*
X19875476Y-34690476D01*
X19827857Y-34738095D01*
X19732619Y-34785714D01*
X20589761Y-33785714D02*
X20589761Y-34785714D01*
X20589761Y-33833333D02*
X20685000Y-33785714D01*
X20875476Y-33785714D01*
X20970714Y-33833333D01*
X21018333Y-33880952D01*
X21065952Y-33976190D01*
X21065952Y-34261904D01*
X21018333Y-34357142D01*
X20970714Y-34404761D01*
X20875476Y-34452380D01*
X20685000Y-34452380D01*
X20589761Y-34404761D01*
X21923095Y-34452380D02*
X21923095Y-33928571D01*
X21875476Y-33833333D01*
X21780238Y-33785714D01*
X21589761Y-33785714D01*
X21494523Y-33833333D01*
X21923095Y-34404761D02*
X21827857Y-34452380D01*
X21589761Y-34452380D01*
X21494523Y-34404761D01*
X21446904Y-34309523D01*
X21446904Y-34214285D01*
X21494523Y-34119047D01*
X21589761Y-34071428D01*
X21827857Y-34071428D01*
X21923095Y-34023809D01*
X22351666Y-34404761D02*
X22446904Y-34452380D01*
X22637380Y-34452380D01*
X22732619Y-34404761D01*
X22780238Y-34309523D01*
X22780238Y-34261904D01*
X22732619Y-34166666D01*
X22637380Y-34119047D01*
X22494523Y-34119047D01*
X22399285Y-34071428D01*
X22351666Y-33976190D01*
X22351666Y-33928571D01*
X22399285Y-33833333D01*
X22494523Y-33785714D01*
X22637380Y-33785714D01*
X22732619Y-33833333D01*
X23161190Y-34404761D02*
X23256428Y-34452380D01*
X23446904Y-34452380D01*
X23542142Y-34404761D01*
X23589761Y-34309523D01*
X23589761Y-34261904D01*
X23542142Y-34166666D01*
X23446904Y-34119047D01*
X23304047Y-34119047D01*
X23208809Y-34071428D01*
X23161190Y-33976190D01*
X23161190Y-33928571D01*
X23208809Y-33833333D01*
X23304047Y-33785714D01*
X23446904Y-33785714D01*
X23542142Y-33833333D01*
%TO.C,Q4*%
X139203865Y-31365238D02*
X139156246Y-31460476D01*
X139061007Y-31555714D01*
X138918150Y-31698571D01*
X138870531Y-31793809D01*
X138870531Y-31889047D01*
X139108626Y-31841428D02*
X139061007Y-31936666D01*
X138965769Y-32031904D01*
X138775293Y-32079523D01*
X138441960Y-32079523D01*
X138251484Y-32031904D01*
X138156246Y-31936666D01*
X138108626Y-31841428D01*
X138108626Y-31650952D01*
X138156246Y-31555714D01*
X138251484Y-31460476D01*
X138441960Y-31412857D01*
X138775293Y-31412857D01*
X138965769Y-31460476D01*
X139061007Y-31555714D01*
X139108626Y-31650952D01*
X139108626Y-31841428D01*
X138441960Y-30555714D02*
X139108626Y-30555714D01*
X138061007Y-30793809D02*
X138775293Y-31031904D01*
X138775293Y-30412857D01*
%TO.C,R3*%
X60467380Y-34706666D02*
X59991190Y-35040000D01*
X60467380Y-35278095D02*
X59467380Y-35278095D01*
X59467380Y-34897142D01*
X59515000Y-34801904D01*
X59562619Y-34754285D01*
X59657857Y-34706666D01*
X59800714Y-34706666D01*
X59895952Y-34754285D01*
X59943571Y-34801904D01*
X59991190Y-34897142D01*
X59991190Y-35278095D01*
X59467380Y-34373333D02*
X59467380Y-33754285D01*
X59848333Y-34087619D01*
X59848333Y-33944761D01*
X59895952Y-33849523D01*
X59943571Y-33801904D01*
X60038809Y-33754285D01*
X60276904Y-33754285D01*
X60372142Y-33801904D01*
X60419761Y-33849523D01*
X60467380Y-33944761D01*
X60467380Y-34230476D01*
X60419761Y-34325714D01*
X60372142Y-34373333D01*
%TO.C,R9*%
X186467380Y-34706666D02*
X185991190Y-35040000D01*
X186467380Y-35278095D02*
X185467380Y-35278095D01*
X185467380Y-34897142D01*
X185515000Y-34801904D01*
X185562619Y-34754285D01*
X185657857Y-34706666D01*
X185800714Y-34706666D01*
X185895952Y-34754285D01*
X185943571Y-34801904D01*
X185991190Y-34897142D01*
X185991190Y-35278095D01*
X186467380Y-34230476D02*
X186467380Y-34040000D01*
X186419761Y-33944761D01*
X186372142Y-33897142D01*
X186229285Y-33801904D01*
X186038809Y-33754285D01*
X185657857Y-33754285D01*
X185562619Y-33801904D01*
X185515000Y-33849523D01*
X185467380Y-33944761D01*
X185467380Y-34135238D01*
X185515000Y-34230476D01*
X185562619Y-34278095D01*
X185657857Y-34325714D01*
X185895952Y-34325714D01*
X185991190Y-34278095D01*
X186038809Y-34230476D01*
X186086428Y-34135238D01*
X186086428Y-33944761D01*
X186038809Y-33849523D01*
X185991190Y-33801904D01*
X185895952Y-33754285D01*
%TO.C,Q2*%
X55214383Y-31365238D02*
X55166764Y-31460476D01*
X55071525Y-31555714D01*
X54928668Y-31698571D01*
X54881049Y-31793809D01*
X54881049Y-31889047D01*
X55119144Y-31841428D02*
X55071525Y-31936666D01*
X54976287Y-32031904D01*
X54785811Y-32079523D01*
X54452478Y-32079523D01*
X54262002Y-32031904D01*
X54166764Y-31936666D01*
X54119144Y-31841428D01*
X54119144Y-31650952D01*
X54166764Y-31555714D01*
X54262002Y-31460476D01*
X54452478Y-31412857D01*
X54785811Y-31412857D01*
X54976287Y-31460476D01*
X55071525Y-31555714D01*
X55119144Y-31650952D01*
X55119144Y-31841428D01*
X54214383Y-31031904D02*
X54166764Y-30984285D01*
X54119144Y-30889047D01*
X54119144Y-30650952D01*
X54166764Y-30555714D01*
X54214383Y-30508095D01*
X54309621Y-30460476D01*
X54404859Y-30460476D01*
X54547716Y-30508095D01*
X55119144Y-31079523D01*
X55119144Y-30460476D01*
%TO.C,Loop3*%
X166661190Y-34452380D02*
X166185000Y-34452380D01*
X166185000Y-33452380D01*
X167137380Y-34452380D02*
X167042142Y-34404761D01*
X166994523Y-34357142D01*
X166946904Y-34261904D01*
X166946904Y-33976190D01*
X166994523Y-33880952D01*
X167042142Y-33833333D01*
X167137380Y-33785714D01*
X167280238Y-33785714D01*
X167375476Y-33833333D01*
X167423095Y-33880952D01*
X167470714Y-33976190D01*
X167470714Y-34261904D01*
X167423095Y-34357142D01*
X167375476Y-34404761D01*
X167280238Y-34452380D01*
X167137380Y-34452380D01*
X168042142Y-34452380D02*
X167946904Y-34404761D01*
X167899285Y-34357142D01*
X167851666Y-34261904D01*
X167851666Y-33976190D01*
X167899285Y-33880952D01*
X167946904Y-33833333D01*
X168042142Y-33785714D01*
X168185000Y-33785714D01*
X168280238Y-33833333D01*
X168327857Y-33880952D01*
X168375476Y-33976190D01*
X168375476Y-34261904D01*
X168327857Y-34357142D01*
X168280238Y-34404761D01*
X168185000Y-34452380D01*
X168042142Y-34452380D01*
X168804047Y-33785714D02*
X168804047Y-34785714D01*
X168804047Y-33833333D02*
X168899285Y-33785714D01*
X169089761Y-33785714D01*
X169185000Y-33833333D01*
X169232619Y-33880952D01*
X169280238Y-33976190D01*
X169280238Y-34261904D01*
X169232619Y-34357142D01*
X169185000Y-34404761D01*
X169089761Y-34452380D01*
X168899285Y-34452380D01*
X168804047Y-34404761D01*
X169613571Y-33452380D02*
X170232619Y-33452380D01*
X169899285Y-33833333D01*
X170042142Y-33833333D01*
X170137380Y-33880952D01*
X170185000Y-33928571D01*
X170232619Y-34023809D01*
X170232619Y-34261904D01*
X170185000Y-34357142D01*
X170137380Y-34404761D01*
X170042142Y-34452380D01*
X169756428Y-34452380D01*
X169661190Y-34404761D01*
X169613571Y-34357142D01*
%TO.C,R5*%
X102467380Y-34706666D02*
X101991190Y-35040000D01*
X102467380Y-35278095D02*
X101467380Y-35278095D01*
X101467380Y-34897142D01*
X101515000Y-34801904D01*
X101562619Y-34754285D01*
X101657857Y-34706666D01*
X101800714Y-34706666D01*
X101895952Y-34754285D01*
X101943571Y-34801904D01*
X101991190Y-34897142D01*
X101991190Y-35278095D01*
X101467380Y-33801904D02*
X101467380Y-34278095D01*
X101943571Y-34325714D01*
X101895952Y-34278095D01*
X101848333Y-34182857D01*
X101848333Y-33944761D01*
X101895952Y-33849523D01*
X101943571Y-33801904D01*
X102038809Y-33754285D01*
X102276904Y-33754285D01*
X102372142Y-33801904D01*
X102419761Y-33849523D01*
X102467380Y-33944761D01*
X102467380Y-34182857D01*
X102419761Y-34278095D01*
X102372142Y-34325714D01*
%TO.C,C2*%
X247848333Y-29357142D02*
X247800714Y-29404761D01*
X247657857Y-29452380D01*
X247562619Y-29452380D01*
X247419761Y-29404761D01*
X247324523Y-29309523D01*
X247276904Y-29214285D01*
X247229285Y-29023809D01*
X247229285Y-28880952D01*
X247276904Y-28690476D01*
X247324523Y-28595238D01*
X247419761Y-28500000D01*
X247562619Y-28452380D01*
X247657857Y-28452380D01*
X247800714Y-28500000D01*
X247848333Y-28547619D01*
X248229285Y-28547619D02*
X248276904Y-28500000D01*
X248372142Y-28452380D01*
X248610238Y-28452380D01*
X248705476Y-28500000D01*
X248753095Y-28547619D01*
X248800714Y-28642857D01*
X248800714Y-28738095D01*
X248753095Y-28880952D01*
X248181666Y-29452380D01*
X248800714Y-29452380D01*
%TO.C,D12*%
X217467380Y-35024285D02*
X216467380Y-35024285D01*
X216467380Y-34786190D01*
X216515000Y-34643333D01*
X216610238Y-34548095D01*
X216705476Y-34500476D01*
X216895952Y-34452857D01*
X217038809Y-34452857D01*
X217229285Y-34500476D01*
X217324523Y-34548095D01*
X217419761Y-34643333D01*
X217467380Y-34786190D01*
X217467380Y-35024285D01*
X217467380Y-33500476D02*
X217467380Y-34071904D01*
X217467380Y-33786190D02*
X216467380Y-33786190D01*
X216610238Y-33881428D01*
X216705476Y-33976666D01*
X216753095Y-34071904D01*
X216562619Y-33119523D02*
X216515000Y-33071904D01*
X216467380Y-32976666D01*
X216467380Y-32738571D01*
X216515000Y-32643333D01*
X216562619Y-32595714D01*
X216657857Y-32548095D01*
X216753095Y-32548095D01*
X216895952Y-32595714D01*
X217467380Y-33167142D01*
X217467380Y-32548095D01*
%TO.C,Loop1*%
X82661190Y-34452380D02*
X82185000Y-34452380D01*
X82185000Y-33452380D01*
X83137380Y-34452380D02*
X83042142Y-34404761D01*
X82994523Y-34357142D01*
X82946904Y-34261904D01*
X82946904Y-33976190D01*
X82994523Y-33880952D01*
X83042142Y-33833333D01*
X83137380Y-33785714D01*
X83280238Y-33785714D01*
X83375476Y-33833333D01*
X83423095Y-33880952D01*
X83470714Y-33976190D01*
X83470714Y-34261904D01*
X83423095Y-34357142D01*
X83375476Y-34404761D01*
X83280238Y-34452380D01*
X83137380Y-34452380D01*
X84042142Y-34452380D02*
X83946904Y-34404761D01*
X83899285Y-34357142D01*
X83851666Y-34261904D01*
X83851666Y-33976190D01*
X83899285Y-33880952D01*
X83946904Y-33833333D01*
X84042142Y-33785714D01*
X84185000Y-33785714D01*
X84280238Y-33833333D01*
X84327857Y-33880952D01*
X84375476Y-33976190D01*
X84375476Y-34261904D01*
X84327857Y-34357142D01*
X84280238Y-34404761D01*
X84185000Y-34452380D01*
X84042142Y-34452380D01*
X84804047Y-33785714D02*
X84804047Y-34785714D01*
X84804047Y-33833333D02*
X84899285Y-33785714D01*
X85089761Y-33785714D01*
X85185000Y-33833333D01*
X85232619Y-33880952D01*
X85280238Y-33976190D01*
X85280238Y-34261904D01*
X85232619Y-34357142D01*
X85185000Y-34404761D01*
X85089761Y-34452380D01*
X84899285Y-34452380D01*
X84804047Y-34404761D01*
X86232619Y-34452380D02*
X85661190Y-34452380D01*
X85946904Y-34452380D02*
X85946904Y-33452380D01*
X85851666Y-33595238D01*
X85756428Y-33690476D01*
X85661190Y-33738095D01*
%TO.C,R4*%
X57467380Y-34706666D02*
X56991190Y-35040000D01*
X57467380Y-35278095D02*
X56467380Y-35278095D01*
X56467380Y-34897142D01*
X56515000Y-34801904D01*
X56562619Y-34754285D01*
X56657857Y-34706666D01*
X56800714Y-34706666D01*
X56895952Y-34754285D01*
X56943571Y-34801904D01*
X56991190Y-34897142D01*
X56991190Y-35278095D01*
X56800714Y-33849523D02*
X57467380Y-33849523D01*
X56419761Y-34087619D02*
X57134047Y-34325714D01*
X57134047Y-33706666D01*
%TO.C,Q1*%
X13301374Y-31365238D02*
X13253755Y-31460476D01*
X13158516Y-31555714D01*
X13015659Y-31698571D01*
X12968040Y-31793809D01*
X12968040Y-31889047D01*
X13206135Y-31841428D02*
X13158516Y-31936666D01*
X13063278Y-32031904D01*
X12872802Y-32079523D01*
X12539469Y-32079523D01*
X12348993Y-32031904D01*
X12253755Y-31936666D01*
X12206135Y-31841428D01*
X12206135Y-31650952D01*
X12253755Y-31555714D01*
X12348993Y-31460476D01*
X12539469Y-31412857D01*
X12872802Y-31412857D01*
X13063278Y-31460476D01*
X13158516Y-31555714D01*
X13206135Y-31650952D01*
X13206135Y-31841428D01*
X13206135Y-30460476D02*
X13206135Y-31031904D01*
X13206135Y-30746190D02*
X12206135Y-30746190D01*
X12348993Y-30841428D01*
X12444231Y-30936666D01*
X12491850Y-31031904D01*
%TO.C,R10*%
X183467380Y-35182857D02*
X182991190Y-35516190D01*
X183467380Y-35754285D02*
X182467380Y-35754285D01*
X182467380Y-35373333D01*
X182515000Y-35278095D01*
X182562619Y-35230476D01*
X182657857Y-35182857D01*
X182800714Y-35182857D01*
X182895952Y-35230476D01*
X182943571Y-35278095D01*
X182991190Y-35373333D01*
X182991190Y-35754285D01*
X183467380Y-34230476D02*
X183467380Y-34801904D01*
X183467380Y-34516190D02*
X182467380Y-34516190D01*
X182610238Y-34611428D01*
X182705476Y-34706666D01*
X182753095Y-34801904D01*
X182467380Y-33611428D02*
X182467380Y-33516190D01*
X182515000Y-33420952D01*
X182562619Y-33373333D01*
X182657857Y-33325714D01*
X182848333Y-33278095D01*
X183086428Y-33278095D01*
X183276904Y-33325714D01*
X183372142Y-33373333D01*
X183419761Y-33420952D01*
X183467380Y-33516190D01*
X183467380Y-33611428D01*
X183419761Y-33706666D01*
X183372142Y-33754285D01*
X183276904Y-33801904D01*
X183086428Y-33849523D01*
X182848333Y-33849523D01*
X182657857Y-33801904D01*
X182562619Y-33754285D01*
X182515000Y-33706666D01*
X182467380Y-33611428D01*
%TO.C,Loop4*%
X208661190Y-34452380D02*
X208185000Y-34452380D01*
X208185000Y-33452380D01*
X209137380Y-34452380D02*
X209042142Y-34404761D01*
X208994523Y-34357142D01*
X208946904Y-34261904D01*
X208946904Y-33976190D01*
X208994523Y-33880952D01*
X209042142Y-33833333D01*
X209137380Y-33785714D01*
X209280238Y-33785714D01*
X209375476Y-33833333D01*
X209423095Y-33880952D01*
X209470714Y-33976190D01*
X209470714Y-34261904D01*
X209423095Y-34357142D01*
X209375476Y-34404761D01*
X209280238Y-34452380D01*
X209137380Y-34452380D01*
X210042142Y-34452380D02*
X209946904Y-34404761D01*
X209899285Y-34357142D01*
X209851666Y-34261904D01*
X209851666Y-33976190D01*
X209899285Y-33880952D01*
X209946904Y-33833333D01*
X210042142Y-33785714D01*
X210185000Y-33785714D01*
X210280238Y-33833333D01*
X210327857Y-33880952D01*
X210375476Y-33976190D01*
X210375476Y-34261904D01*
X210327857Y-34357142D01*
X210280238Y-34404761D01*
X210185000Y-34452380D01*
X210042142Y-34452380D01*
X210804047Y-33785714D02*
X210804047Y-34785714D01*
X210804047Y-33833333D02*
X210899285Y-33785714D01*
X211089761Y-33785714D01*
X211185000Y-33833333D01*
X211232619Y-33880952D01*
X211280238Y-33976190D01*
X211280238Y-34261904D01*
X211232619Y-34357142D01*
X211185000Y-34404761D01*
X211089761Y-34452380D01*
X210899285Y-34452380D01*
X210804047Y-34404761D01*
X212137380Y-33785714D02*
X212137380Y-34452380D01*
X211899285Y-33404761D02*
X211661190Y-34119047D01*
X212280238Y-34119047D01*
%TO.C,Tuner*%
X52452380Y-12578571D02*
X52452380Y-12007142D01*
X53452380Y-12292857D02*
X52452380Y-12292857D01*
X52785714Y-11245238D02*
X53452380Y-11245238D01*
X52785714Y-11673809D02*
X53309523Y-11673809D01*
X53404761Y-11626190D01*
X53452380Y-11530952D01*
X53452380Y-11388095D01*
X53404761Y-11292857D01*
X53357142Y-11245238D01*
X52785714Y-10769047D02*
X53452380Y-10769047D01*
X52880952Y-10769047D02*
X52833333Y-10721428D01*
X52785714Y-10626190D01*
X52785714Y-10483333D01*
X52833333Y-10388095D01*
X52928571Y-10340476D01*
X53452380Y-10340476D01*
X53404761Y-9483333D02*
X53452380Y-9578571D01*
X53452380Y-9769047D01*
X53404761Y-9864285D01*
X53309523Y-9911904D01*
X52928571Y-9911904D01*
X52833333Y-9864285D01*
X52785714Y-9769047D01*
X52785714Y-9578571D01*
X52833333Y-9483333D01*
X52928571Y-9435714D01*
X53023809Y-9435714D01*
X53119047Y-9911904D01*
X53452380Y-9007142D02*
X52785714Y-9007142D01*
X52976190Y-9007142D02*
X52880952Y-8959523D01*
X52833333Y-8911904D01*
X52785714Y-8816666D01*
X52785714Y-8721428D01*
X40256428Y-33452380D02*
X40827857Y-33452380D01*
X40542142Y-34452380D02*
X40542142Y-33452380D01*
X41589761Y-33785714D02*
X41589761Y-34452380D01*
X41161190Y-33785714D02*
X41161190Y-34309523D01*
X41208809Y-34404761D01*
X41304047Y-34452380D01*
X41446904Y-34452380D01*
X41542142Y-34404761D01*
X41589761Y-34357142D01*
X42065952Y-33785714D02*
X42065952Y-34452380D01*
X42065952Y-33880952D02*
X42113571Y-33833333D01*
X42208809Y-33785714D01*
X42351666Y-33785714D01*
X42446904Y-33833333D01*
X42494523Y-33928571D01*
X42494523Y-34452380D01*
X43351666Y-34404761D02*
X43256428Y-34452380D01*
X43065952Y-34452380D01*
X42970714Y-34404761D01*
X42923095Y-34309523D01*
X42923095Y-33928571D01*
X42970714Y-33833333D01*
X43065952Y-33785714D01*
X43256428Y-33785714D01*
X43351666Y-33833333D01*
X43399285Y-33928571D01*
X43399285Y-34023809D01*
X42923095Y-34119047D01*
X43827857Y-34452380D02*
X43827857Y-33785714D01*
X43827857Y-33976190D02*
X43875476Y-33880952D01*
X43923095Y-33833333D01*
X44018333Y-33785714D01*
X44113571Y-33785714D01*
%TO.C,Q6*%
X223242350Y-31365238D02*
X223194731Y-31460476D01*
X223099492Y-31555714D01*
X222956635Y-31698571D01*
X222909016Y-31793809D01*
X222909016Y-31889047D01*
X223147111Y-31841428D02*
X223099492Y-31936666D01*
X223004254Y-32031904D01*
X222813778Y-32079523D01*
X222480445Y-32079523D01*
X222289969Y-32031904D01*
X222194731Y-31936666D01*
X222147111Y-31841428D01*
X222147111Y-31650952D01*
X222194731Y-31555714D01*
X222289969Y-31460476D01*
X222480445Y-31412857D01*
X222813778Y-31412857D01*
X223004254Y-31460476D01*
X223099492Y-31555714D01*
X223147111Y-31650952D01*
X223147111Y-31841428D01*
X222147111Y-30555714D02*
X222147111Y-30746190D01*
X222194731Y-30841428D01*
X222242350Y-30889047D01*
X222385207Y-30984285D01*
X222575683Y-31031904D01*
X222956635Y-31031904D01*
X223051873Y-30984285D01*
X223099492Y-30936666D01*
X223147111Y-30841428D01*
X223147111Y-30650952D01*
X223099492Y-30555714D01*
X223051873Y-30508095D01*
X222956635Y-30460476D01*
X222718540Y-30460476D01*
X222623302Y-30508095D01*
X222575683Y-30555714D01*
X222528064Y-30650952D01*
X222528064Y-30841428D01*
X222575683Y-30936666D01*
X222623302Y-30984285D01*
X222718540Y-31031904D01*
%TO.C,L2-Out*%
X137452380Y-12697619D02*
X137452380Y-13173809D01*
X136452380Y-13173809D01*
X136547619Y-12411904D02*
X136500000Y-12364285D01*
X136452380Y-12269047D01*
X136452380Y-12030952D01*
X136500000Y-11935714D01*
X136547619Y-11888095D01*
X136642857Y-11840476D01*
X136738095Y-11840476D01*
X136880952Y-11888095D01*
X137452380Y-12459523D01*
X137452380Y-11840476D01*
X137071428Y-11411904D02*
X137071428Y-10650000D01*
X136452380Y-9983333D02*
X136452380Y-9792857D01*
X136500000Y-9697619D01*
X136595238Y-9602380D01*
X136785714Y-9554761D01*
X137119047Y-9554761D01*
X137309523Y-9602380D01*
X137404761Y-9697619D01*
X137452380Y-9792857D01*
X137452380Y-9983333D01*
X137404761Y-10078571D01*
X137309523Y-10173809D01*
X137119047Y-10221428D01*
X136785714Y-10221428D01*
X136595238Y-10173809D01*
X136500000Y-10078571D01*
X136452380Y-9983333D01*
X136785714Y-8697619D02*
X137452380Y-8697619D01*
X136785714Y-9126190D02*
X137309523Y-9126190D01*
X137404761Y-9078571D01*
X137452380Y-8983333D01*
X137452380Y-8840476D01*
X137404761Y-8745238D01*
X137357142Y-8697619D01*
X136785714Y-8364285D02*
X136785714Y-7983333D01*
X136452380Y-8221428D02*
X137309523Y-8221428D01*
X137404761Y-8173809D01*
X137452380Y-8078571D01*
X137452380Y-7983333D01*
%TO.C,L1-In*%
X74452380Y-12126190D02*
X74452380Y-12602380D01*
X73452380Y-12602380D01*
X74452380Y-11269047D02*
X74452380Y-11840476D01*
X74452380Y-11554761D02*
X73452380Y-11554761D01*
X73595238Y-11650000D01*
X73690476Y-11745238D01*
X73738095Y-11840476D01*
X74071428Y-10840476D02*
X74071428Y-10078571D01*
X74452380Y-9602380D02*
X73452380Y-9602380D01*
X73785714Y-9126190D02*
X74452380Y-9126190D01*
X73880952Y-9126190D02*
X73833333Y-9078571D01*
X73785714Y-8983333D01*
X73785714Y-8840476D01*
X73833333Y-8745238D01*
X73928571Y-8697619D01*
X74452380Y-8697619D01*
%TO.C,R8*%
X141467380Y-34706666D02*
X140991190Y-35040000D01*
X141467380Y-35278095D02*
X140467380Y-35278095D01*
X140467380Y-34897142D01*
X140515000Y-34801904D01*
X140562619Y-34754285D01*
X140657857Y-34706666D01*
X140800714Y-34706666D01*
X140895952Y-34754285D01*
X140943571Y-34801904D01*
X140991190Y-34897142D01*
X140991190Y-35278095D01*
X140895952Y-34135238D02*
X140848333Y-34230476D01*
X140800714Y-34278095D01*
X140705476Y-34325714D01*
X140657857Y-34325714D01*
X140562619Y-34278095D01*
X140515000Y-34230476D01*
X140467380Y-34135238D01*
X140467380Y-33944761D01*
X140515000Y-33849523D01*
X140562619Y-33801904D01*
X140657857Y-33754285D01*
X140705476Y-33754285D01*
X140800714Y-33801904D01*
X140848333Y-33849523D01*
X140895952Y-33944761D01*
X140895952Y-34135238D01*
X140943571Y-34230476D01*
X140991190Y-34278095D01*
X141086428Y-34325714D01*
X141276904Y-34325714D01*
X141372142Y-34278095D01*
X141419761Y-34230476D01*
X141467380Y-34135238D01*
X141467380Y-33944761D01*
X141419761Y-33849523D01*
X141372142Y-33801904D01*
X141276904Y-33754285D01*
X141086428Y-33754285D01*
X140991190Y-33801904D01*
X140943571Y-33849523D01*
X140895952Y-33944761D01*
%TO.C,R11*%
X228467380Y-35182857D02*
X227991190Y-35516190D01*
X228467380Y-35754285D02*
X227467380Y-35754285D01*
X227467380Y-35373333D01*
X227515000Y-35278095D01*
X227562619Y-35230476D01*
X227657857Y-35182857D01*
X227800714Y-35182857D01*
X227895952Y-35230476D01*
X227943571Y-35278095D01*
X227991190Y-35373333D01*
X227991190Y-35754285D01*
X228467380Y-34230476D02*
X228467380Y-34801904D01*
X228467380Y-34516190D02*
X227467380Y-34516190D01*
X227610238Y-34611428D01*
X227705476Y-34706666D01*
X227753095Y-34801904D01*
X228467380Y-33278095D02*
X228467380Y-33849523D01*
X228467380Y-33563809D02*
X227467380Y-33563809D01*
X227610238Y-33659047D01*
X227705476Y-33754285D01*
X227753095Y-33849523D01*
%TO.C,L1-Out*%
X95452380Y-12697619D02*
X95452380Y-13173809D01*
X94452380Y-13173809D01*
X95452380Y-11840476D02*
X95452380Y-12411904D01*
X95452380Y-12126190D02*
X94452380Y-12126190D01*
X94595238Y-12221428D01*
X94690476Y-12316666D01*
X94738095Y-12411904D01*
X95071428Y-11411904D02*
X95071428Y-10650000D01*
X94452380Y-9983333D02*
X94452380Y-9792857D01*
X94500000Y-9697619D01*
X94595238Y-9602380D01*
X94785714Y-9554761D01*
X95119047Y-9554761D01*
X95309523Y-9602380D01*
X95404761Y-9697619D01*
X95452380Y-9792857D01*
X95452380Y-9983333D01*
X95404761Y-10078571D01*
X95309523Y-10173809D01*
X95119047Y-10221428D01*
X94785714Y-10221428D01*
X94595238Y-10173809D01*
X94500000Y-10078571D01*
X94452380Y-9983333D01*
X94785714Y-8697619D02*
X95452380Y-8697619D01*
X94785714Y-9126190D02*
X95309523Y-9126190D01*
X95404761Y-9078571D01*
X95452380Y-8983333D01*
X95452380Y-8840476D01*
X95404761Y-8745238D01*
X95357142Y-8697619D01*
X94785714Y-8364285D02*
X94785714Y-7983333D01*
X94452380Y-8221428D02*
X95309523Y-8221428D01*
X95404761Y-8173809D01*
X95452380Y-8078571D01*
X95452380Y-7983333D01*
%TO.C,D10*%
X175467380Y-35024285D02*
X174467380Y-35024285D01*
X174467380Y-34786190D01*
X174515000Y-34643333D01*
X174610238Y-34548095D01*
X174705476Y-34500476D01*
X174895952Y-34452857D01*
X175038809Y-34452857D01*
X175229285Y-34500476D01*
X175324523Y-34548095D01*
X175419761Y-34643333D01*
X175467380Y-34786190D01*
X175467380Y-35024285D01*
X175467380Y-33500476D02*
X175467380Y-34071904D01*
X175467380Y-33786190D02*
X174467380Y-33786190D01*
X174610238Y-33881428D01*
X174705476Y-33976666D01*
X174753095Y-34071904D01*
X174467380Y-32881428D02*
X174467380Y-32786190D01*
X174515000Y-32690952D01*
X174562619Y-32643333D01*
X174657857Y-32595714D01*
X174848333Y-32548095D01*
X175086428Y-32548095D01*
X175276904Y-32595714D01*
X175372142Y-32643333D01*
X175419761Y-32690952D01*
X175467380Y-32786190D01*
X175467380Y-32881428D01*
X175419761Y-32976666D01*
X175372142Y-33024285D01*
X175276904Y-33071904D01*
X175086428Y-33119523D01*
X174848333Y-33119523D01*
X174657857Y-33071904D01*
X174562619Y-33024285D01*
X174515000Y-32976666D01*
X174467380Y-32881428D01*
%TO.C,L3-Out*%
X179452380Y-12697619D02*
X179452380Y-13173809D01*
X178452380Y-13173809D01*
X178452380Y-12459523D02*
X178452380Y-11840476D01*
X178833333Y-12173809D01*
X178833333Y-12030952D01*
X178880952Y-11935714D01*
X178928571Y-11888095D01*
X179023809Y-11840476D01*
X179261904Y-11840476D01*
X179357142Y-11888095D01*
X179404761Y-11935714D01*
X179452380Y-12030952D01*
X179452380Y-12316666D01*
X179404761Y-12411904D01*
X179357142Y-12459523D01*
X179071428Y-11411904D02*
X179071428Y-10650000D01*
X178452380Y-9983333D02*
X178452380Y-9792857D01*
X178500000Y-9697619D01*
X178595238Y-9602380D01*
X178785714Y-9554761D01*
X179119047Y-9554761D01*
X179309523Y-9602380D01*
X179404761Y-9697619D01*
X179452380Y-9792857D01*
X179452380Y-9983333D01*
X179404761Y-10078571D01*
X179309523Y-10173809D01*
X179119047Y-10221428D01*
X178785714Y-10221428D01*
X178595238Y-10173809D01*
X178500000Y-10078571D01*
X178452380Y-9983333D01*
X178785714Y-8697619D02*
X179452380Y-8697619D01*
X178785714Y-9126190D02*
X179309523Y-9126190D01*
X179404761Y-9078571D01*
X179452380Y-8983333D01*
X179452380Y-8840476D01*
X179404761Y-8745238D01*
X179357142Y-8697619D01*
X178785714Y-8364285D02*
X178785714Y-7983333D01*
X178452380Y-8221428D02*
X179309523Y-8221428D01*
X179404761Y-8173809D01*
X179452380Y-8078571D01*
X179452380Y-7983333D01*
%TO.C,D2*%
X15967380Y-34548095D02*
X14967380Y-34548095D01*
X14967380Y-34310000D01*
X15015000Y-34167142D01*
X15110238Y-34071904D01*
X15205476Y-34024285D01*
X15395952Y-33976666D01*
X15538809Y-33976666D01*
X15729285Y-34024285D01*
X15824523Y-34071904D01*
X15919761Y-34167142D01*
X15967380Y-34310000D01*
X15967380Y-34548095D01*
X15062619Y-33595714D02*
X15015000Y-33548095D01*
X14967380Y-33452857D01*
X14967380Y-33214761D01*
X15015000Y-33119523D01*
X15062619Y-33071904D01*
X15157857Y-33024285D01*
X15253095Y-33024285D01*
X15395952Y-33071904D01*
X15967380Y-33643333D01*
X15967380Y-33024285D01*
%TO.C,L4-In*%
X200452380Y-12126190D02*
X200452380Y-12602380D01*
X199452380Y-12602380D01*
X199785714Y-11364285D02*
X200452380Y-11364285D01*
X199404761Y-11602380D02*
X200119047Y-11840476D01*
X200119047Y-11221428D01*
X200071428Y-10840476D02*
X200071428Y-10078571D01*
X200452380Y-9602380D02*
X199452380Y-9602380D01*
X199785714Y-9126190D02*
X200452380Y-9126190D01*
X199880952Y-9126190D02*
X199833333Y-9078571D01*
X199785714Y-8983333D01*
X199785714Y-8840476D01*
X199833333Y-8745238D01*
X199928571Y-8697619D01*
X200452380Y-8697619D01*
%TO.C,U1*%
X251365702Y-22517962D02*
X251365702Y-22994153D01*
X250365702Y-22994153D01*
X251365702Y-22184629D02*
X250365702Y-22184629D01*
X251079988Y-21851296D01*
X250365702Y-21517962D01*
X251365702Y-21517962D01*
X250365702Y-21137010D02*
X250365702Y-20470343D01*
X251365702Y-20898915D01*
X250794274Y-19946534D02*
X250746655Y-20041772D01*
X250699036Y-20089391D01*
X250603798Y-20137010D01*
X250556179Y-20137010D01*
X250460941Y-20089391D01*
X250413322Y-20041772D01*
X250365702Y-19946534D01*
X250365702Y-19756057D01*
X250413322Y-19660819D01*
X250460941Y-19613200D01*
X250556179Y-19565581D01*
X250603798Y-19565581D01*
X250699036Y-19613200D01*
X250746655Y-19660819D01*
X250794274Y-19756057D01*
X250794274Y-19946534D01*
X250841893Y-20041772D01*
X250889512Y-20089391D01*
X250984750Y-20137010D01*
X251175226Y-20137010D01*
X251270464Y-20089391D01*
X251318083Y-20041772D01*
X251365702Y-19946534D01*
X251365702Y-19756057D01*
X251318083Y-19660819D01*
X251270464Y-19613200D01*
X251175226Y-19565581D01*
X250984750Y-19565581D01*
X250889512Y-19613200D01*
X250841893Y-19660819D01*
X250794274Y-19756057D01*
X250365702Y-18946534D02*
X250365702Y-18851296D01*
X250413322Y-18756057D01*
X250460941Y-18708438D01*
X250556179Y-18660819D01*
X250746655Y-18613200D01*
X250984750Y-18613200D01*
X251175226Y-18660819D01*
X251270464Y-18708438D01*
X251318083Y-18756057D01*
X251365702Y-18851296D01*
X251365702Y-18946534D01*
X251318083Y-19041772D01*
X251270464Y-19089391D01*
X251175226Y-19137010D01*
X250984750Y-19184629D01*
X250746655Y-19184629D01*
X250556179Y-19137010D01*
X250460941Y-19089391D01*
X250413322Y-19041772D01*
X250365702Y-18946534D01*
X250365702Y-17708438D02*
X250365702Y-18184629D01*
X250841893Y-18232248D01*
X250794274Y-18184629D01*
X250746655Y-18089391D01*
X250746655Y-17851296D01*
X250794274Y-17756057D01*
X250841893Y-17708438D01*
X250937131Y-17660819D01*
X251175226Y-17660819D01*
X251270464Y-17708438D01*
X251318083Y-17756057D01*
X251365702Y-17851296D01*
X251365702Y-18089391D01*
X251318083Y-18184629D01*
X251270464Y-18232248D01*
%TO.C,R7*%
X144467380Y-34706666D02*
X143991190Y-35040000D01*
X144467380Y-35278095D02*
X143467380Y-35278095D01*
X143467380Y-34897142D01*
X143515000Y-34801904D01*
X143562619Y-34754285D01*
X143657857Y-34706666D01*
X143800714Y-34706666D01*
X143895952Y-34754285D01*
X143943571Y-34801904D01*
X143991190Y-34897142D01*
X143991190Y-35278095D01*
X143467380Y-34373333D02*
X143467380Y-33706666D01*
X144467380Y-34135238D01*
%TO.C,L4-Out*%
X221452380Y-12697619D02*
X221452380Y-13173809D01*
X220452380Y-13173809D01*
X220785714Y-11935714D02*
X221452380Y-11935714D01*
X220404761Y-12173809D02*
X221119047Y-12411904D01*
X221119047Y-11792857D01*
X221071428Y-11411904D02*
X221071428Y-10650000D01*
X220452380Y-9983333D02*
X220452380Y-9792857D01*
X220500000Y-9697619D01*
X220595238Y-9602380D01*
X220785714Y-9554761D01*
X221119047Y-9554761D01*
X221309523Y-9602380D01*
X221404761Y-9697619D01*
X221452380Y-9792857D01*
X221452380Y-9983333D01*
X221404761Y-10078571D01*
X221309523Y-10173809D01*
X221119047Y-10221428D01*
X220785714Y-10221428D01*
X220595238Y-10173809D01*
X220500000Y-10078571D01*
X220452380Y-9983333D01*
X220785714Y-8697619D02*
X221452380Y-8697619D01*
X220785714Y-9126190D02*
X221309523Y-9126190D01*
X221404761Y-9078571D01*
X221452380Y-8983333D01*
X221452380Y-8840476D01*
X221404761Y-8745238D01*
X221357142Y-8697619D01*
X220785714Y-8364285D02*
X220785714Y-7983333D01*
X220452380Y-8221428D02*
X221309523Y-8221428D01*
X221404761Y-8173809D01*
X221452380Y-8078571D01*
X221452380Y-7983333D01*
%TO.C,C1*%
X239848333Y-19357142D02*
X239800714Y-19404761D01*
X239657857Y-19452380D01*
X239562619Y-19452380D01*
X239419761Y-19404761D01*
X239324523Y-19309523D01*
X239276904Y-19214285D01*
X239229285Y-19023809D01*
X239229285Y-18880952D01*
X239276904Y-18690476D01*
X239324523Y-18595238D01*
X239419761Y-18500000D01*
X239562619Y-18452380D01*
X239657857Y-18452380D01*
X239800714Y-18500000D01*
X239848333Y-18547619D01*
X240800714Y-19452380D02*
X240229285Y-19452380D01*
X240515000Y-19452380D02*
X240515000Y-18452380D01*
X240419761Y-18595238D01*
X240324523Y-18690476D01*
X240229285Y-18738095D01*
%TO.C,Loop2*%
X124661190Y-34452380D02*
X124185000Y-34452380D01*
X124185000Y-33452380D01*
X125137380Y-34452380D02*
X125042142Y-34404761D01*
X124994523Y-34357142D01*
X124946904Y-34261904D01*
X124946904Y-33976190D01*
X124994523Y-33880952D01*
X125042142Y-33833333D01*
X125137380Y-33785714D01*
X125280238Y-33785714D01*
X125375476Y-33833333D01*
X125423095Y-33880952D01*
X125470714Y-33976190D01*
X125470714Y-34261904D01*
X125423095Y-34357142D01*
X125375476Y-34404761D01*
X125280238Y-34452380D01*
X125137380Y-34452380D01*
X126042142Y-34452380D02*
X125946904Y-34404761D01*
X125899285Y-34357142D01*
X125851666Y-34261904D01*
X125851666Y-33976190D01*
X125899285Y-33880952D01*
X125946904Y-33833333D01*
X126042142Y-33785714D01*
X126185000Y-33785714D01*
X126280238Y-33833333D01*
X126327857Y-33880952D01*
X126375476Y-33976190D01*
X126375476Y-34261904D01*
X126327857Y-34357142D01*
X126280238Y-34404761D01*
X126185000Y-34452380D01*
X126042142Y-34452380D01*
X126804047Y-33785714D02*
X126804047Y-34785714D01*
X126804047Y-33833333D02*
X126899285Y-33785714D01*
X127089761Y-33785714D01*
X127185000Y-33833333D01*
X127232619Y-33880952D01*
X127280238Y-33976190D01*
X127280238Y-34261904D01*
X127232619Y-34357142D01*
X127185000Y-34404761D01*
X127089761Y-34452380D01*
X126899285Y-34452380D01*
X126804047Y-34404761D01*
X127661190Y-33547619D02*
X127708809Y-33500000D01*
X127804047Y-33452380D01*
X128042142Y-33452380D01*
X128137380Y-33500000D01*
X128185000Y-33547619D01*
X128232619Y-33642857D01*
X128232619Y-33738095D01*
X128185000Y-33880952D01*
X127613571Y-34452380D01*
X128232619Y-34452380D01*
%TO.C,R2*%
X7451921Y-34706666D02*
X6975731Y-35040000D01*
X7451921Y-35278095D02*
X6451921Y-35278095D01*
X6451921Y-34897142D01*
X6499541Y-34801904D01*
X6547160Y-34754285D01*
X6642398Y-34706666D01*
X6785255Y-34706666D01*
X6880493Y-34754285D01*
X6928112Y-34801904D01*
X6975731Y-34897142D01*
X6975731Y-35278095D01*
X6547160Y-34325714D02*
X6499541Y-34278095D01*
X6451921Y-34182857D01*
X6451921Y-33944761D01*
X6499541Y-33849523D01*
X6547160Y-33801904D01*
X6642398Y-33754285D01*
X6737636Y-33754285D01*
X6880493Y-33801904D01*
X7451921Y-34373333D01*
X7451921Y-33754285D01*
%TO.C,L3-In*%
X158452380Y-12126190D02*
X158452380Y-12602380D01*
X157452380Y-12602380D01*
X157452380Y-11888095D02*
X157452380Y-11269047D01*
X157833333Y-11602380D01*
X157833333Y-11459523D01*
X157880952Y-11364285D01*
X157928571Y-11316666D01*
X158023809Y-11269047D01*
X158261904Y-11269047D01*
X158357142Y-11316666D01*
X158404761Y-11364285D01*
X158452380Y-11459523D01*
X158452380Y-11745238D01*
X158404761Y-11840476D01*
X158357142Y-11888095D01*
X158071428Y-10840476D02*
X158071428Y-10078571D01*
X158452380Y-9602380D02*
X157452380Y-9602380D01*
X157785714Y-9126190D02*
X158452380Y-9126190D01*
X157880952Y-9126190D02*
X157833333Y-9078571D01*
X157785714Y-8983333D01*
X157785714Y-8840476D01*
X157833333Y-8745238D01*
X157928571Y-8697619D01*
X158452380Y-8697619D01*
%TO.C,D8*%
X133467380Y-34548095D02*
X132467380Y-34548095D01*
X132467380Y-34310000D01*
X132515000Y-34167142D01*
X132610238Y-34071904D01*
X132705476Y-34024285D01*
X132895952Y-33976666D01*
X133038809Y-33976666D01*
X133229285Y-34024285D01*
X133324523Y-34071904D01*
X133419761Y-34167142D01*
X133467380Y-34310000D01*
X133467380Y-34548095D01*
X132895952Y-33405238D02*
X132848333Y-33500476D01*
X132800714Y-33548095D01*
X132705476Y-33595714D01*
X132657857Y-33595714D01*
X132562619Y-33548095D01*
X132515000Y-33500476D01*
X132467380Y-33405238D01*
X132467380Y-33214761D01*
X132515000Y-33119523D01*
X132562619Y-33071904D01*
X132657857Y-33024285D01*
X132705476Y-33024285D01*
X132800714Y-33071904D01*
X132848333Y-33119523D01*
X132895952Y-33214761D01*
X132895952Y-33405238D01*
X132943571Y-33500476D01*
X132991190Y-33548095D01*
X133086428Y-33595714D01*
X133276904Y-33595714D01*
X133372142Y-33548095D01*
X133419761Y-33500476D01*
X133467380Y-33405238D01*
X133467380Y-33214761D01*
X133419761Y-33119523D01*
X133372142Y-33071904D01*
X133276904Y-33024285D01*
X133086428Y-33024285D01*
X132991190Y-33071904D01*
X132943571Y-33119523D01*
X132895952Y-33214761D01*
%TO.C,D6*%
X91467380Y-34548095D02*
X90467380Y-34548095D01*
X90467380Y-34310000D01*
X90515000Y-34167142D01*
X90610238Y-34071904D01*
X90705476Y-34024285D01*
X90895952Y-33976666D01*
X91038809Y-33976666D01*
X91229285Y-34024285D01*
X91324523Y-34071904D01*
X91419761Y-34167142D01*
X91467380Y-34310000D01*
X91467380Y-34548095D01*
X90467380Y-33119523D02*
X90467380Y-33310000D01*
X90515000Y-33405238D01*
X90562619Y-33452857D01*
X90705476Y-33548095D01*
X90895952Y-33595714D01*
X91276904Y-33595714D01*
X91372142Y-33548095D01*
X91419761Y-33500476D01*
X91467380Y-33405238D01*
X91467380Y-33214761D01*
X91419761Y-33119523D01*
X91372142Y-33071904D01*
X91276904Y-33024285D01*
X91038809Y-33024285D01*
X90943571Y-33071904D01*
X90895952Y-33119523D01*
X90848333Y-33214761D01*
X90848333Y-33405238D01*
X90895952Y-33500476D01*
X90943571Y-33548095D01*
X91038809Y-33595714D01*
%TO.C,R6*%
X99467380Y-34706666D02*
X98991190Y-35040000D01*
X99467380Y-35278095D02*
X98467380Y-35278095D01*
X98467380Y-34897142D01*
X98515000Y-34801904D01*
X98562619Y-34754285D01*
X98657857Y-34706666D01*
X98800714Y-34706666D01*
X98895952Y-34754285D01*
X98943571Y-34801904D01*
X98991190Y-34897142D01*
X98991190Y-35278095D01*
X98467380Y-33849523D02*
X98467380Y-34040000D01*
X98515000Y-34135238D01*
X98562619Y-34182857D01*
X98705476Y-34278095D01*
X98895952Y-34325714D01*
X99276904Y-34325714D01*
X99372142Y-34278095D01*
X99419761Y-34230476D01*
X99467380Y-34135238D01*
X99467380Y-33944761D01*
X99419761Y-33849523D01*
X99372142Y-33801904D01*
X99276904Y-33754285D01*
X99038809Y-33754285D01*
X98943571Y-33801904D01*
X98895952Y-33849523D01*
X98848333Y-33944761D01*
X98848333Y-34135238D01*
X98895952Y-34230476D01*
X98943571Y-34278095D01*
X99038809Y-34325714D01*
%TO.C,Q5*%
X181246615Y-31365238D02*
X181198996Y-31460476D01*
X181103757Y-31555714D01*
X180960900Y-31698571D01*
X180913281Y-31793809D01*
X180913281Y-31889047D01*
X181151376Y-31841428D02*
X181103757Y-31936666D01*
X181008519Y-32031904D01*
X180818043Y-32079523D01*
X180484710Y-32079523D01*
X180294234Y-32031904D01*
X180198996Y-31936666D01*
X180151376Y-31841428D01*
X180151376Y-31650952D01*
X180198996Y-31555714D01*
X180294234Y-31460476D01*
X180484710Y-31412857D01*
X180818043Y-31412857D01*
X181008519Y-31460476D01*
X181103757Y-31555714D01*
X181151376Y-31650952D01*
X181151376Y-31841428D01*
X180151376Y-30508095D02*
X180151376Y-30984285D01*
X180627567Y-31031904D01*
X180579948Y-30984285D01*
X180532329Y-30889047D01*
X180532329Y-30650952D01*
X180579948Y-30555714D01*
X180627567Y-30508095D01*
X180722805Y-30460476D01*
X180960900Y-30460476D01*
X181056138Y-30508095D01*
X181103757Y-30555714D01*
X181151376Y-30650952D01*
X181151376Y-30889047D01*
X181103757Y-30984285D01*
X181056138Y-31031904D01*
%TO.C,Out*%
X31452380Y-11483333D02*
X31452380Y-11292857D01*
X31500000Y-11197619D01*
X31595238Y-11102380D01*
X31785714Y-11054761D01*
X32119047Y-11054761D01*
X32309523Y-11102380D01*
X32404761Y-11197619D01*
X32452380Y-11292857D01*
X32452380Y-11483333D01*
X32404761Y-11578571D01*
X32309523Y-11673809D01*
X32119047Y-11721428D01*
X31785714Y-11721428D01*
X31595238Y-11673809D01*
X31500000Y-11578571D01*
X31452380Y-11483333D01*
X31785714Y-10197619D02*
X32452380Y-10197619D01*
X31785714Y-10626190D02*
X32309523Y-10626190D01*
X32404761Y-10578571D01*
X32452380Y-10483333D01*
X32452380Y-10340476D01*
X32404761Y-10245238D01*
X32357142Y-10197619D01*
X31785714Y-9864285D02*
X31785714Y-9483333D01*
X31452380Y-9721428D02*
X32309523Y-9721428D01*
X32404761Y-9673809D01*
X32452380Y-9578571D01*
X32452380Y-9483333D01*
%TO.C,R12*%
X225467380Y-35182857D02*
X224991190Y-35516190D01*
X225467380Y-35754285D02*
X224467380Y-35754285D01*
X224467380Y-35373333D01*
X224515000Y-35278095D01*
X224562619Y-35230476D01*
X224657857Y-35182857D01*
X224800714Y-35182857D01*
X224895952Y-35230476D01*
X224943571Y-35278095D01*
X224991190Y-35373333D01*
X224991190Y-35754285D01*
X225467380Y-34230476D02*
X225467380Y-34801904D01*
X225467380Y-34516190D02*
X224467380Y-34516190D01*
X224610238Y-34611428D01*
X224705476Y-34706666D01*
X224753095Y-34801904D01*
X224562619Y-33849523D02*
X224515000Y-33801904D01*
X224467380Y-33706666D01*
X224467380Y-33468571D01*
X224515000Y-33373333D01*
X224562619Y-33325714D01*
X224657857Y-33278095D01*
X224753095Y-33278095D01*
X224895952Y-33325714D01*
X225467380Y-33897142D01*
X225467380Y-33278095D01*
D11*
%TO.C,D13*%
X235485000Y-24720000D02*
X235485000Y-19280000D01*
X235485000Y-20060000D02*
X232545000Y-20060000D01*
X232545000Y-19280000D02*
X232545000Y-24720000D01*
X232545000Y-24720000D02*
X235485000Y-24720000D01*
X235485000Y-20180000D02*
X232545000Y-20180000D01*
X234015000Y-18260000D02*
X234015000Y-19280000D01*
X234015000Y-25740000D02*
X234015000Y-24720000D01*
X235485000Y-19280000D02*
X232545000Y-19280000D01*
X235485000Y-20300000D02*
X232545000Y-20300000D01*
%TO.C,D9*%
X177725000Y-35764000D02*
X177725000Y-35920000D01*
X177725000Y-38080000D02*
X177725000Y-38236000D01*
X180326130Y-35920163D02*
G75*
G03*
X178244039Y-35920000I-1041130J-1079837D01*
G01*
X178244039Y-38080000D02*
G75*
G03*
X180326130Y-38079837I1040961J1080000D01*
G01*
X180957335Y-35921392D02*
G75*
G03*
X177725000Y-35764484I-1672335J-1078608D01*
G01*
X177725000Y-38235516D02*
G75*
G03*
X180957335Y-38078608I1560000J1235516D01*
G01*
%TO.C,R1*%
X4935000Y-32620000D02*
X4935000Y-36460000D01*
X3095000Y-32620000D02*
X3095000Y-36460000D01*
%TO.C,JDC1*%
X234372500Y-9000000D02*
X234372500Y-200000D01*
X243572500Y-14900000D02*
X240972500Y-14900000D01*
X234372500Y-200000D02*
X243572500Y-200000D01*
X242722500Y-15100000D02*
X243772500Y-15100000D01*
X243572500Y-200000D02*
X243572500Y-14900000D01*
X237072500Y-14900000D02*
X234372500Y-14900000D01*
X234372500Y-14900000D02*
X234372500Y-13000000D01*
X243772500Y-14050000D02*
X243772500Y-15100000D01*
%TO.C,L2-In*%
X125235000Y-180000D02*
X125235000Y-2900000D01*
X125235000Y-18400000D02*
X125235000Y-21030000D01*
X106795000Y-15600000D02*
X106795000Y-12000000D01*
X106795000Y-9300000D02*
X106795000Y-5700000D01*
X106795000Y-21030000D02*
X106795000Y-18400000D01*
X125235000Y-12000000D02*
X125235000Y-15600000D01*
X120485000Y-23950000D02*
X120485000Y-21030000D01*
X111545000Y-23950000D02*
X111545000Y-21030000D01*
X125235000Y-5700000D02*
X125235000Y-9300000D01*
X125235000Y-21030000D02*
X120485000Y-21030000D01*
X106795000Y-180000D02*
X106795000Y-2900000D01*
X125235000Y-180000D02*
X106795000Y-180000D01*
X120445000Y-23950000D02*
X111545000Y-23950000D01*
X111545000Y-21030000D02*
X106795000Y-21030000D01*
%TO.C,In*%
X1795000Y-180000D02*
X1795000Y-2900000D01*
X15445000Y-23950000D02*
X6545000Y-23950000D01*
X6545000Y-21030000D02*
X1795000Y-21030000D01*
X1795000Y-21030000D02*
X1795000Y-18400000D01*
X1795000Y-9300000D02*
X1795000Y-5700000D01*
X20235000Y-12000000D02*
X20235000Y-15600000D01*
X20235000Y-5700000D02*
X20235000Y-9300000D01*
X20235000Y-180000D02*
X20235000Y-2900000D01*
X20235000Y-18400000D02*
X20235000Y-21030000D01*
X1795000Y-15600000D02*
X1795000Y-12000000D01*
X20235000Y-21030000D02*
X15485000Y-21030000D01*
X15485000Y-23950000D02*
X15485000Y-21030000D01*
X20235000Y-180000D02*
X1795000Y-180000D01*
X6545000Y-23950000D02*
X6545000Y-21030000D01*
%TO.C,D4*%
X50355000Y-31090000D02*
X50485000Y-31090000D01*
X47545000Y-31090000D02*
X47545000Y-36530000D01*
X50485000Y-31090000D02*
X50485000Y-36530000D01*
X50485000Y-31870000D02*
X47545000Y-31870000D01*
X47675000Y-31090000D02*
X47545000Y-31090000D01*
X50485000Y-32110000D02*
X47545000Y-32110000D01*
X50485000Y-31990000D02*
X47545000Y-31990000D01*
X47545000Y-36530000D02*
X47675000Y-36530000D01*
X50485000Y-36530000D02*
X50355000Y-36530000D01*
%TO.C,Q3*%
X93165000Y-29470000D02*
X93165000Y-33070000D01*
X97615001Y-31270000D02*
G75*
G03*
X93176522Y-29431522I-2600001J0D01*
G01*
X93176522Y-33108478D02*
G75*
G03*
X97615000Y-31270000I1838478J1838478D01*
G01*
%TO.C,Bypass*%
X21885000Y-36800000D02*
X21185000Y-37200000D01*
X17585000Y-38290000D02*
X25365000Y-38290000D01*
X17585000Y-38290000D02*
X17585000Y-23010000D01*
X25585000Y-36170000D02*
X25585000Y-38510000D01*
X25365000Y-38270000D02*
X25365000Y-23010000D01*
X21885000Y-37600000D02*
X21885000Y-36400000D01*
X21185000Y-37600000D02*
X21885000Y-37600000D01*
X17585000Y-23010000D02*
X25365000Y-23010000D01*
X25585000Y-38510000D02*
X23395000Y-38510000D01*
X21185000Y-36400000D02*
X21185000Y-37600000D01*
X21885000Y-36400000D02*
X21185000Y-36400000D01*
%TO.C,Q4*%
X135165000Y-29470000D02*
X135165000Y-33070000D01*
X135176522Y-33108478D02*
G75*
G03*
X139615000Y-31270000I1838478J1838478D01*
G01*
X139615001Y-31270000D02*
G75*
G03*
X135176522Y-29431522I-2600001J0D01*
G01*
%TO.C,J4*%
X238610000Y-34790000D02*
X238610000Y-36000000D01*
X231890000Y-36000000D02*
X231890000Y-34790000D01*
X231090000Y-36110000D02*
X231090000Y-38610000D01*
X231890000Y-34790000D02*
X238610000Y-34790000D01*
X231390000Y-38310000D02*
X239110000Y-38310000D01*
X239110000Y-38310000D02*
X239110000Y-34290000D01*
X238610000Y-36000000D02*
X239110000Y-36000000D01*
X231390000Y-36000000D02*
X231890000Y-36000000D01*
X238110000Y-36810000D02*
X238110000Y-38310000D01*
X239110000Y-36810000D02*
X238110000Y-36810000D01*
X231090000Y-38610000D02*
X233590000Y-38610000D01*
X232390000Y-36810000D02*
X232390000Y-38310000D01*
X239110000Y-34290000D02*
X231390000Y-34290000D01*
X231390000Y-34290000D02*
X231390000Y-38310000D01*
X231390000Y-36810000D02*
X232390000Y-36810000D01*
%TO.C,R3*%
X59095000Y-32620000D02*
X59095000Y-36460000D01*
X60935000Y-32620000D02*
X60935000Y-36460000D01*
%TO.C,R9*%
X185095000Y-32620000D02*
X185095000Y-36460000D01*
X186935000Y-32620000D02*
X186935000Y-36460000D01*
%TO.C,Q2*%
X51165000Y-29470000D02*
X51165000Y-33070000D01*
X55615001Y-31270000D02*
G75*
G03*
X51176522Y-29431522I-2600001J0D01*
G01*
X51176522Y-33108478D02*
G75*
G03*
X55615000Y-31270000I1838478J1838478D01*
G01*
%TO.C,Loop3*%
X164585000Y-23010000D02*
X172365000Y-23010000D01*
X168185000Y-36400000D02*
X168185000Y-37600000D01*
X168185000Y-37600000D02*
X168885000Y-37600000D01*
X164585000Y-38290000D02*
X164585000Y-23010000D01*
X172585000Y-36170000D02*
X172585000Y-38510000D01*
X164585000Y-38290000D02*
X172365000Y-38290000D01*
X168885000Y-36400000D02*
X168185000Y-36400000D01*
X168885000Y-36800000D02*
X168185000Y-37200000D01*
X168885000Y-37600000D02*
X168885000Y-36400000D01*
X172365000Y-38270000D02*
X172365000Y-23010000D01*
X172585000Y-38510000D02*
X170395000Y-38510000D01*
%TO.C,R5*%
X101095000Y-32620000D02*
X101095000Y-36460000D01*
X102935000Y-32620000D02*
X102935000Y-36460000D01*
%TO.C,C2*%
X249055000Y-22549000D02*
X249398000Y-22549000D01*
X245980000Y-23149000D02*
X246975000Y-23149000D01*
X245893000Y-23269000D02*
X246975000Y-23269000D01*
X249055000Y-23509000D02*
X250283000Y-23509000D01*
X249055000Y-22669000D02*
X249569000Y-22669000D01*
X245514000Y-24110000D02*
X246975000Y-24110000D01*
X249055000Y-23189000D02*
X250080000Y-23189000D01*
X249055000Y-23949000D02*
X250470000Y-23949000D01*
X249055000Y-23709000D02*
X250380000Y-23709000D01*
X249055000Y-23389000D02*
X250215000Y-23389000D01*
X245768000Y-23469000D02*
X246975000Y-23469000D01*
X249055000Y-23309000D02*
X250164000Y-23309000D01*
X245436000Y-24670000D02*
X250594000Y-24670000D01*
X249055000Y-24110000D02*
X250516000Y-24110000D01*
X245495000Y-24190000D02*
X246975000Y-24190000D01*
X249055000Y-24430000D02*
X250576000Y-24430000D01*
X249055000Y-24350000D02*
X250565000Y-24350000D01*
X249055000Y-22829000D02*
X249758000Y-22829000D01*
X245435000Y-24710000D02*
X250595000Y-24710000D01*
X245535000Y-24029000D02*
X246975000Y-24029000D01*
X249055000Y-23109000D02*
X250019000Y-23109000D01*
X249055000Y-24029000D02*
X250495000Y-24029000D01*
X245686000Y-23629000D02*
X246975000Y-23629000D01*
X246461000Y-22669000D02*
X246975000Y-22669000D01*
X246151000Y-22949000D02*
X246975000Y-22949000D01*
X246114000Y-22989000D02*
X246975000Y-22989000D01*
X245633000Y-23749000D02*
X246975000Y-23749000D01*
X247731000Y-22149000D02*
X248299000Y-22149000D01*
X246572000Y-22589000D02*
X246975000Y-22589000D01*
X245454000Y-24430000D02*
X246975000Y-24430000D01*
X249055000Y-23469000D02*
X250262000Y-23469000D01*
X249055000Y-23669000D02*
X250363000Y-23669000D01*
X249055000Y-22709000D02*
X249620000Y-22709000D01*
X249055000Y-22789000D02*
X249714000Y-22789000D01*
X246362000Y-22749000D02*
X246975000Y-22749000D01*
X245920000Y-23229000D02*
X246975000Y-23229000D01*
X245459000Y-24390000D02*
X246975000Y-24390000D01*
X249055000Y-22869000D02*
X249800000Y-22869000D01*
X245747000Y-23509000D02*
X246975000Y-23509000D01*
X246632000Y-22549000D02*
X246975000Y-22549000D01*
X245479000Y-24270000D02*
X246975000Y-24270000D01*
X246078000Y-23029000D02*
X246975000Y-23029000D01*
X249055000Y-23029000D02*
X249952000Y-23029000D01*
X246515000Y-22629000D02*
X246975000Y-22629000D01*
X245815000Y-23389000D02*
X246975000Y-23389000D01*
X249055000Y-24150000D02*
X250526000Y-24150000D01*
X245840000Y-23349000D02*
X246975000Y-23349000D01*
X249055000Y-22949000D02*
X249879000Y-22949000D01*
X247100000Y-22309000D02*
X248930000Y-22309000D01*
X245705000Y-23589000D02*
X246975000Y-23589000D01*
X249055000Y-24190000D02*
X250535000Y-24190000D01*
X249055000Y-22989000D02*
X249916000Y-22989000D01*
X246837000Y-22429000D02*
X249193000Y-22429000D01*
X245587000Y-23869000D02*
X246975000Y-23869000D01*
X245573000Y-23909000D02*
X246975000Y-23909000D01*
X245617000Y-23789000D02*
X246975000Y-23789000D01*
X249055000Y-22629000D02*
X249515000Y-22629000D01*
X245560000Y-23949000D02*
X246975000Y-23949000D01*
X245601000Y-23829000D02*
X246975000Y-23829000D01*
X246917000Y-22389000D02*
X249113000Y-22389000D01*
X245435000Y-24750000D02*
X250595000Y-24750000D01*
X249055000Y-23629000D02*
X250344000Y-23629000D01*
X249055000Y-24310000D02*
X250558000Y-24310000D01*
X249055000Y-24470000D02*
X250580000Y-24470000D01*
X249055000Y-24070000D02*
X250506000Y-24070000D01*
X247210000Y-22269000D02*
X248820000Y-22269000D01*
X246764000Y-22469000D02*
X246975000Y-22469000D01*
X249055000Y-23549000D02*
X250305000Y-23549000D01*
X249055000Y-23229000D02*
X250110000Y-23229000D01*
X245472000Y-24310000D02*
X246975000Y-24310000D01*
X245442000Y-24550000D02*
X250588000Y-24550000D01*
X249055000Y-23269000D02*
X250137000Y-23269000D01*
X245650000Y-23709000D02*
X246975000Y-23709000D01*
X247004000Y-22349000D02*
X249026000Y-22349000D01*
X249055000Y-23829000D02*
X250429000Y-23829000D01*
X245524000Y-24070000D02*
X246975000Y-24070000D01*
X246290000Y-27304775D02*
X246790000Y-27304775D01*
X249055000Y-24230000D02*
X250543000Y-24230000D01*
X246316000Y-22789000D02*
X246975000Y-22789000D01*
X245950000Y-23189000D02*
X246975000Y-23189000D01*
X249055000Y-24270000D02*
X250551000Y-24270000D01*
X249055000Y-22589000D02*
X249458000Y-22589000D01*
X245450000Y-24470000D02*
X246975000Y-24470000D01*
X249055000Y-23149000D02*
X250050000Y-23149000D01*
X249055000Y-22909000D02*
X249841000Y-22909000D01*
X245465000Y-24350000D02*
X246975000Y-24350000D01*
X245504000Y-24150000D02*
X246975000Y-24150000D01*
X249055000Y-23349000D02*
X250190000Y-23349000D01*
X245446000Y-24510000D02*
X246975000Y-24510000D01*
X246272000Y-22829000D02*
X246975000Y-22829000D01*
X246410000Y-22709000D02*
X246975000Y-22709000D01*
X249055000Y-23429000D02*
X250239000Y-23429000D01*
X246696000Y-22509000D02*
X246975000Y-22509000D01*
X249055000Y-24390000D02*
X250571000Y-24390000D01*
X246044000Y-23069000D02*
X246975000Y-23069000D01*
X247338000Y-22229000D02*
X248692000Y-22229000D01*
X245866000Y-23309000D02*
X246975000Y-23309000D01*
X249055000Y-23909000D02*
X250457000Y-23909000D01*
X246230000Y-22869000D02*
X246975000Y-22869000D01*
X249055000Y-23789000D02*
X250413000Y-23789000D01*
X249055000Y-22509000D02*
X249334000Y-22509000D01*
X249055000Y-24510000D02*
X250584000Y-24510000D01*
X249055000Y-22469000D02*
X249266000Y-22469000D01*
X245487000Y-24230000D02*
X246975000Y-24230000D01*
X249055000Y-23869000D02*
X250443000Y-23869000D01*
X249055000Y-23589000D02*
X250325000Y-23589000D01*
X246011000Y-23109000D02*
X246975000Y-23109000D01*
X249055000Y-23069000D02*
X249986000Y-23069000D01*
X249055000Y-22749000D02*
X249668000Y-22749000D01*
X245439000Y-24590000D02*
X250591000Y-24590000D01*
X246189000Y-22909000D02*
X246975000Y-22909000D01*
X246540000Y-27554775D02*
X246540000Y-27054775D01*
X245791000Y-23429000D02*
X246975000Y-23429000D01*
X247497000Y-22189000D02*
X248533000Y-22189000D01*
X245667000Y-23669000D02*
X246975000Y-23669000D01*
X245547000Y-23989000D02*
X246975000Y-23989000D01*
X249055000Y-23989000D02*
X250483000Y-23989000D01*
X245725000Y-23549000D02*
X246975000Y-23549000D01*
X245437000Y-24630000D02*
X250593000Y-24630000D01*
X249055000Y-23749000D02*
X250397000Y-23749000D01*
X250635000Y-24750000D02*
G75*
G03*
X250635000Y-24750000I-2620000J0D01*
G01*
%TO.C,D12*%
X215545000Y-36530000D02*
X215675000Y-36530000D01*
X215675000Y-31090000D02*
X215545000Y-31090000D01*
X215545000Y-31090000D02*
X215545000Y-36530000D01*
X218485000Y-31090000D02*
X218485000Y-36530000D01*
X218355000Y-31090000D02*
X218485000Y-31090000D01*
X218485000Y-36530000D02*
X218355000Y-36530000D01*
X218485000Y-31990000D02*
X215545000Y-31990000D01*
X218485000Y-31870000D02*
X215545000Y-31870000D01*
X218485000Y-32110000D02*
X215545000Y-32110000D01*
%TO.C,Loop1*%
X80585000Y-38290000D02*
X80585000Y-23010000D01*
X84885000Y-36400000D02*
X84185000Y-36400000D01*
X88585000Y-38510000D02*
X86395000Y-38510000D01*
X84185000Y-37600000D02*
X84885000Y-37600000D01*
X84885000Y-36800000D02*
X84185000Y-37200000D01*
X84885000Y-37600000D02*
X84885000Y-36400000D01*
X88585000Y-36170000D02*
X88585000Y-38510000D01*
X80585000Y-38290000D02*
X88365000Y-38290000D01*
X88365000Y-38270000D02*
X88365000Y-23010000D01*
X80585000Y-23010000D02*
X88365000Y-23010000D01*
X84185000Y-36400000D02*
X84185000Y-37600000D01*
%TO.C,R4*%
X56095000Y-32620000D02*
X56095000Y-36460000D01*
X57935000Y-32620000D02*
X57935000Y-36460000D01*
%TO.C,Q1*%
X9165000Y-29470000D02*
X9165000Y-33070000D01*
X9176522Y-33108478D02*
G75*
G03*
X13615000Y-31270000I1838478J1838478D01*
G01*
X13615001Y-31270000D02*
G75*
G03*
X9176522Y-29431522I-2600001J0D01*
G01*
%TO.C,R10*%
X182095000Y-32620000D02*
X182095000Y-36460000D01*
X183935000Y-32620000D02*
X183935000Y-36460000D01*
%TO.C,Loop4*%
X210885000Y-37600000D02*
X210885000Y-36400000D01*
X214365000Y-38270000D02*
X214365000Y-23010000D01*
X210885000Y-36400000D02*
X210185000Y-36400000D01*
X206585000Y-38290000D02*
X206585000Y-23010000D01*
X210185000Y-37600000D02*
X210885000Y-37600000D01*
X214585000Y-38510000D02*
X212395000Y-38510000D01*
X206585000Y-23010000D02*
X214365000Y-23010000D01*
X214585000Y-36170000D02*
X214585000Y-38510000D01*
X210185000Y-36400000D02*
X210185000Y-37600000D01*
X206585000Y-38290000D02*
X214365000Y-38290000D01*
X210885000Y-36800000D02*
X210185000Y-37200000D01*
%TO.C,Tuner*%
X48545000Y-23950000D02*
X48545000Y-21030000D01*
X62235000Y-180000D02*
X43795000Y-180000D01*
X57485000Y-23950000D02*
X57485000Y-21030000D01*
X62235000Y-18400000D02*
X62235000Y-21030000D01*
X62235000Y-5700000D02*
X62235000Y-9300000D01*
X43795000Y-9300000D02*
X43795000Y-5700000D01*
X62235000Y-180000D02*
X62235000Y-2900000D01*
X43795000Y-15600000D02*
X43795000Y-12000000D01*
X43795000Y-21030000D02*
X43795000Y-18400000D01*
X57445000Y-23950000D02*
X48545000Y-23950000D01*
X62235000Y-21030000D02*
X57485000Y-21030000D01*
X62235000Y-12000000D02*
X62235000Y-15600000D01*
X48545000Y-21030000D02*
X43795000Y-21030000D01*
X43795000Y-180000D02*
X43795000Y-2900000D01*
X38585000Y-38290000D02*
X46365000Y-38290000D01*
X46585000Y-36170000D02*
X46585000Y-38510000D01*
X38585000Y-38290000D02*
X38585000Y-23010000D01*
X38585000Y-23010000D02*
X46365000Y-23010000D01*
X42885000Y-37600000D02*
X42885000Y-36400000D01*
X42185000Y-37600000D02*
X42885000Y-37600000D01*
X46585000Y-38510000D02*
X44395000Y-38510000D01*
X42185000Y-36400000D02*
X42185000Y-37600000D01*
X42885000Y-36400000D02*
X42185000Y-36400000D01*
X42885000Y-36800000D02*
X42185000Y-37200000D01*
X46365000Y-38270000D02*
X46365000Y-23010000D01*
%TO.C,Q6*%
X219165000Y-29470000D02*
X219165000Y-33070000D01*
X223615001Y-31270000D02*
G75*
G03*
X219176522Y-29431522I-2600001J0D01*
G01*
X219176522Y-33108478D02*
G75*
G03*
X223615000Y-31270000I1838478J1838478D01*
G01*
%TO.C,L2-Out*%
X146235000Y-180000D02*
X127795000Y-180000D01*
X132545000Y-21030000D02*
X127795000Y-21030000D01*
X146235000Y-18400000D02*
X146235000Y-21030000D01*
X141485000Y-23950000D02*
X141485000Y-21030000D01*
X127795000Y-15600000D02*
X127795000Y-12000000D01*
X146235000Y-21030000D02*
X141485000Y-21030000D01*
X146235000Y-5700000D02*
X146235000Y-9300000D01*
X141445000Y-23950000D02*
X132545000Y-23950000D01*
X146235000Y-180000D02*
X146235000Y-2900000D01*
X132545000Y-23950000D02*
X132545000Y-21030000D01*
X127795000Y-180000D02*
X127795000Y-2900000D01*
X127795000Y-9300000D02*
X127795000Y-5700000D01*
X146235000Y-12000000D02*
X146235000Y-15600000D01*
X127795000Y-21030000D02*
X127795000Y-18400000D01*
%TO.C,L1-In*%
X64795000Y-21030000D02*
X64795000Y-18400000D01*
X64795000Y-180000D02*
X64795000Y-2900000D01*
X78485000Y-23950000D02*
X78485000Y-21030000D01*
X64795000Y-15600000D02*
X64795000Y-12000000D01*
X83235000Y-18400000D02*
X83235000Y-21030000D01*
X69545000Y-21030000D02*
X64795000Y-21030000D01*
X83235000Y-5700000D02*
X83235000Y-9300000D01*
X78445000Y-23950000D02*
X69545000Y-23950000D01*
X83235000Y-180000D02*
X64795000Y-180000D01*
X83235000Y-21030000D02*
X78485000Y-21030000D01*
X83235000Y-180000D02*
X83235000Y-2900000D01*
X69545000Y-23950000D02*
X69545000Y-21030000D01*
X64795000Y-9300000D02*
X64795000Y-5700000D01*
X83235000Y-12000000D02*
X83235000Y-15600000D01*
%TO.C,R8*%
X140095000Y-32620000D02*
X140095000Y-36460000D01*
X141935000Y-32620000D02*
X141935000Y-36460000D01*
%TO.C,R11*%
X227095000Y-32620000D02*
X227095000Y-36460000D01*
X228935000Y-32620000D02*
X228935000Y-36460000D01*
%TO.C,J56*%
X192390000Y-34790000D02*
X199110000Y-34790000D01*
X191890000Y-36000000D02*
X192390000Y-36000000D01*
X199610000Y-38310000D02*
X199610000Y-34290000D01*
X191590000Y-36110000D02*
X191590000Y-38610000D01*
X191890000Y-38310000D02*
X199610000Y-38310000D01*
X199110000Y-34790000D02*
X199110000Y-36000000D01*
X199610000Y-36810000D02*
X198610000Y-36810000D01*
X192890000Y-36810000D02*
X192890000Y-38310000D01*
X199610000Y-34290000D02*
X191890000Y-34290000D01*
X199110000Y-36000000D02*
X199610000Y-36000000D01*
X192390000Y-36000000D02*
X192390000Y-34790000D01*
X198610000Y-36810000D02*
X198610000Y-38310000D01*
X191890000Y-34290000D02*
X191890000Y-38310000D01*
X191590000Y-38610000D02*
X194090000Y-38610000D01*
X191890000Y-36810000D02*
X192890000Y-36810000D01*
%TO.C,L1-Out*%
X104235000Y-5700000D02*
X104235000Y-9300000D01*
X104235000Y-180000D02*
X104235000Y-2900000D01*
X85795000Y-180000D02*
X85795000Y-2900000D01*
X85795000Y-15600000D02*
X85795000Y-12000000D01*
X90545000Y-21030000D02*
X85795000Y-21030000D01*
X99485000Y-23950000D02*
X99485000Y-21030000D01*
X85795000Y-21030000D02*
X85795000Y-18400000D01*
X104235000Y-21030000D02*
X99485000Y-21030000D01*
X99445000Y-23950000D02*
X90545000Y-23950000D01*
X85795000Y-9300000D02*
X85795000Y-5700000D01*
X104235000Y-18400000D02*
X104235000Y-21030000D01*
X104235000Y-12000000D02*
X104235000Y-15600000D01*
X90545000Y-23950000D02*
X90545000Y-21030000D01*
X104235000Y-180000D02*
X85795000Y-180000D01*
%TO.C,D10*%
X176485000Y-36530000D02*
X176355000Y-36530000D01*
X176485000Y-31990000D02*
X173545000Y-31990000D01*
X173675000Y-31090000D02*
X173545000Y-31090000D01*
X176485000Y-32110000D02*
X173545000Y-32110000D01*
X176485000Y-31870000D02*
X173545000Y-31870000D01*
X173545000Y-36530000D02*
X173675000Y-36530000D01*
X176355000Y-31090000D02*
X176485000Y-31090000D01*
X176485000Y-31090000D02*
X176485000Y-36530000D01*
X173545000Y-31090000D02*
X173545000Y-36530000D01*
%TO.C,L3-Out*%
X183485000Y-23950000D02*
X183485000Y-21030000D01*
X188235000Y-5700000D02*
X188235000Y-9300000D01*
X169795000Y-180000D02*
X169795000Y-2900000D01*
X169795000Y-21030000D02*
X169795000Y-18400000D01*
X174545000Y-23950000D02*
X174545000Y-21030000D01*
X174545000Y-21030000D02*
X169795000Y-21030000D01*
X169795000Y-9300000D02*
X169795000Y-5700000D01*
X183445000Y-23950000D02*
X174545000Y-23950000D01*
X188235000Y-18400000D02*
X188235000Y-21030000D01*
X188235000Y-21030000D02*
X183485000Y-21030000D01*
X188235000Y-180000D02*
X188235000Y-2900000D01*
X188235000Y-180000D02*
X169795000Y-180000D01*
X188235000Y-12000000D02*
X188235000Y-15600000D01*
X169795000Y-15600000D02*
X169795000Y-12000000D01*
%TO.C,D2*%
X16985000Y-31870000D02*
X14045000Y-31870000D01*
X16985000Y-32110000D02*
X14045000Y-32110000D01*
X16855000Y-31090000D02*
X16985000Y-31090000D01*
X16985000Y-36530000D02*
X16855000Y-36530000D01*
X14045000Y-31090000D02*
X14045000Y-36530000D01*
X14045000Y-36530000D02*
X14175000Y-36530000D01*
X14175000Y-31090000D02*
X14045000Y-31090000D01*
X16985000Y-31990000D02*
X14045000Y-31990000D01*
X16985000Y-31090000D02*
X16985000Y-36530000D01*
%TO.C,L4-In*%
X204485000Y-23950000D02*
X204485000Y-21030000D01*
X209235000Y-18400000D02*
X209235000Y-21030000D01*
X209235000Y-180000D02*
X209235000Y-2900000D01*
X190795000Y-15600000D02*
X190795000Y-12000000D01*
X209235000Y-21030000D02*
X204485000Y-21030000D01*
X190795000Y-21030000D02*
X190795000Y-18400000D01*
X195545000Y-23950000D02*
X195545000Y-21030000D01*
X190795000Y-9300000D02*
X190795000Y-5700000D01*
X209235000Y-12000000D02*
X209235000Y-15600000D01*
X204445000Y-23950000D02*
X195545000Y-23950000D01*
X195545000Y-21030000D02*
X190795000Y-21030000D01*
X190795000Y-180000D02*
X190795000Y-2900000D01*
X209235000Y-5700000D02*
X209235000Y-9300000D01*
X209235000Y-180000D02*
X190795000Y-180000D01*
%TO.C,U1*%
X256340000Y-28120000D02*
X251699000Y-28120000D01*
X256340000Y-17880000D02*
X251699000Y-17880000D01*
X251699000Y-17880000D02*
X251699000Y-28120000D01*
X256340000Y-17880000D02*
X256340000Y-28120000D01*
X256340000Y-21150000D02*
X254830000Y-21150000D01*
X254830000Y-17880000D02*
X254830000Y-28120000D01*
X256340000Y-24851000D02*
X254830000Y-24851000D01*
%TO.C,R7*%
X143095000Y-32620000D02*
X143095000Y-36460000D01*
X144935000Y-32620000D02*
X144935000Y-36460000D01*
%TO.C,L4-Out*%
X230235000Y-180000D02*
X230235000Y-2900000D01*
X211795000Y-9300000D02*
X211795000Y-5700000D01*
X230235000Y-18400000D02*
X230235000Y-21030000D01*
X230235000Y-21030000D02*
X225485000Y-21030000D01*
X211795000Y-180000D02*
X211795000Y-2900000D01*
X230235000Y-12000000D02*
X230235000Y-15600000D01*
X225445000Y-23950000D02*
X216545000Y-23950000D01*
X211795000Y-15600000D02*
X211795000Y-12000000D01*
X216545000Y-23950000D02*
X216545000Y-21030000D01*
X230235000Y-5700000D02*
X230235000Y-9300000D01*
X211795000Y-21030000D02*
X211795000Y-18400000D01*
X216545000Y-21030000D02*
X211795000Y-21030000D01*
X225485000Y-23950000D02*
X225485000Y-21030000D01*
X230235000Y-180000D02*
X211795000Y-180000D01*
%TO.C,D3*%
X51725000Y-35764000D02*
X51725000Y-35920000D01*
X51725000Y-38080000D02*
X51725000Y-38236000D01*
X54326130Y-35920163D02*
G75*
G03*
X52244039Y-35920000I-1041130J-1079837D01*
G01*
X52244039Y-38080000D02*
G75*
G03*
X54326130Y-38079837I1040961J1080000D01*
G01*
X51725000Y-38235516D02*
G75*
G03*
X54957335Y-38078608I1560000J1235516D01*
G01*
X54957335Y-35921392D02*
G75*
G03*
X51725000Y-35764484I-1672335J-1078608D01*
G01*
%TO.C,J34*%
X107390000Y-38310000D02*
X115110000Y-38310000D01*
X107090000Y-36110000D02*
X107090000Y-38610000D01*
X107390000Y-36000000D02*
X107890000Y-36000000D01*
X108390000Y-36810000D02*
X108390000Y-38310000D01*
X107390000Y-36810000D02*
X108390000Y-36810000D01*
X115110000Y-38310000D02*
X115110000Y-34290000D01*
X107890000Y-34790000D02*
X114610000Y-34790000D01*
X114610000Y-36000000D02*
X115110000Y-36000000D01*
X107890000Y-36000000D02*
X107890000Y-34790000D01*
X114110000Y-36810000D02*
X114110000Y-38310000D01*
X115110000Y-36810000D02*
X114110000Y-36810000D01*
X114610000Y-34790000D02*
X114610000Y-36000000D01*
X115110000Y-34290000D02*
X107390000Y-34290000D01*
X107390000Y-34290000D02*
X107390000Y-38310000D01*
X107090000Y-38610000D02*
X109590000Y-38610000D01*
%TO.C,JDC2*%
X246415000Y-200000D02*
X255615000Y-200000D01*
X255615000Y-14900000D02*
X253015000Y-14900000D01*
X255615000Y-200000D02*
X255615000Y-14900000D01*
X246415000Y-9000000D02*
X246415000Y-200000D01*
X249115000Y-14900000D02*
X246415000Y-14900000D01*
X246415000Y-14900000D02*
X246415000Y-13000000D01*
X254765000Y-15100000D02*
X255815000Y-15100000D01*
X255815000Y-14050000D02*
X255815000Y-15100000D01*
%TO.C,C1*%
X245285000Y-15811000D02*
X245285000Y-17960000D01*
X247086000Y-16735000D02*
X247086000Y-21265000D01*
X245005000Y-15778000D02*
X245005000Y-17960000D01*
X246726000Y-16422000D02*
X246726000Y-17960000D01*
X246326000Y-16166000D02*
X246326000Y-17960000D01*
X246006000Y-20040000D02*
X246006000Y-21986000D01*
X246766000Y-16452000D02*
X246766000Y-17960000D01*
X247126000Y-16776000D02*
X247126000Y-21224000D01*
X246846000Y-20040000D02*
X246846000Y-21484000D01*
X246526000Y-16284000D02*
X246526000Y-17960000D01*
X247846000Y-17941000D02*
X247846000Y-20059000D01*
X245526000Y-20040000D02*
X245526000Y-22141000D01*
X245846000Y-15953000D02*
X245846000Y-17960000D01*
X247246000Y-16908000D02*
X247246000Y-21092000D01*
X247006000Y-20040000D02*
X247006000Y-21343000D01*
X246806000Y-20040000D02*
X246806000Y-21516000D01*
X247406000Y-17110000D02*
X247406000Y-20890000D01*
X245285000Y-20040000D02*
X245285000Y-22189000D01*
X244845000Y-15770000D02*
X244845000Y-22230000D01*
X246366000Y-20040000D02*
X246366000Y-21812000D01*
X247046000Y-20040000D02*
X247046000Y-21305000D01*
X245245000Y-20040000D02*
X245245000Y-22195000D01*
X246686000Y-20040000D02*
X246686000Y-21607000D01*
X247806000Y-17835000D02*
X247806000Y-20165000D01*
X247006000Y-16657000D02*
X247006000Y-17960000D01*
X245045000Y-20040000D02*
X245045000Y-22218000D01*
X245125000Y-20040000D02*
X245125000Y-22211000D01*
X245125000Y-15789000D02*
X245125000Y-17960000D01*
X246166000Y-20040000D02*
X246166000Y-21916000D01*
X246006000Y-16014000D02*
X246006000Y-17960000D01*
X246086000Y-16048000D02*
X246086000Y-17960000D01*
X246126000Y-20040000D02*
X246126000Y-21934000D01*
X245085000Y-20040000D02*
X245085000Y-22215000D01*
X246206000Y-20040000D02*
X246206000Y-21896000D01*
X245966000Y-15998000D02*
X245966000Y-17960000D01*
X245726000Y-15914000D02*
X245726000Y-17960000D01*
X247526000Y-17286000D02*
X247526000Y-20714000D01*
X246446000Y-16234000D02*
X246446000Y-17960000D01*
X247686000Y-17568000D02*
X247686000Y-20432000D01*
X246246000Y-16124000D02*
X246246000Y-17960000D01*
X247446000Y-17166000D02*
X247446000Y-20834000D01*
X245165000Y-15794000D02*
X245165000Y-17960000D01*
X247046000Y-16695000D02*
X247046000Y-17960000D01*
X245926000Y-20040000D02*
X245926000Y-22018000D01*
X246646000Y-16364000D02*
X246646000Y-17960000D01*
X246806000Y-16484000D02*
X246806000Y-17960000D01*
X246206000Y-16104000D02*
X246206000Y-17960000D01*
X246286000Y-16144000D02*
X246286000Y-17960000D01*
X245445000Y-15841000D02*
X245445000Y-17960000D01*
X247286000Y-16956000D02*
X247286000Y-21044000D01*
X245365000Y-20040000D02*
X245365000Y-22175000D01*
X247766000Y-17738000D02*
X247766000Y-20262000D01*
X245566000Y-20040000D02*
X245566000Y-22131000D01*
X245606000Y-15879000D02*
X245606000Y-17960000D01*
X245365000Y-15825000D02*
X245365000Y-17960000D01*
X248006000Y-18598000D02*
X248006000Y-19402000D01*
X246646000Y-20040000D02*
X246646000Y-21636000D01*
X246446000Y-20040000D02*
X246446000Y-21766000D01*
X246246000Y-20040000D02*
X246246000Y-21876000D01*
X247726000Y-17650000D02*
X247726000Y-20350000D01*
X245486000Y-15850000D02*
X245486000Y-17960000D01*
X246526000Y-20040000D02*
X246526000Y-21716000D01*
X245325000Y-20040000D02*
X245325000Y-22182000D01*
X246486000Y-16258000D02*
X246486000Y-17960000D01*
X245445000Y-20040000D02*
X245445000Y-22159000D01*
X246766000Y-20040000D02*
X246766000Y-21548000D01*
X246406000Y-20040000D02*
X246406000Y-21790000D01*
X245686000Y-15902000D02*
X245686000Y-17960000D01*
X245606000Y-20040000D02*
X245606000Y-22121000D01*
X246926000Y-20040000D02*
X246926000Y-21416000D01*
X245646000Y-15890000D02*
X245646000Y-17960000D01*
X246686000Y-16393000D02*
X246686000Y-17960000D01*
X245405000Y-20040000D02*
X245405000Y-22167000D01*
X245005000Y-20040000D02*
X245005000Y-22222000D01*
X244805000Y-15770000D02*
X244805000Y-22230000D01*
X246046000Y-16030000D02*
X246046000Y-17960000D01*
X246326000Y-20040000D02*
X246326000Y-21834000D01*
X245926000Y-15982000D02*
X245926000Y-17960000D01*
X246846000Y-16516000D02*
X246846000Y-17960000D01*
X245526000Y-15859000D02*
X245526000Y-17960000D01*
X246566000Y-20040000D02*
X246566000Y-21690000D01*
X247646000Y-17491000D02*
X247646000Y-20509000D01*
X245766000Y-15926000D02*
X245766000Y-17960000D01*
X245486000Y-20040000D02*
X245486000Y-22150000D01*
X246046000Y-20040000D02*
X246046000Y-21970000D01*
X246406000Y-16210000D02*
X246406000Y-17960000D01*
X244765000Y-15770000D02*
X244765000Y-22230000D01*
X245646000Y-20040000D02*
X245646000Y-22110000D01*
X245806000Y-20040000D02*
X245806000Y-22061000D01*
X247486000Y-17224000D02*
X247486000Y-20776000D01*
X246486000Y-20040000D02*
X246486000Y-21742000D01*
X245966000Y-20040000D02*
X245966000Y-22002000D01*
X245686000Y-20040000D02*
X245686000Y-22098000D01*
X246606000Y-16336000D02*
X246606000Y-17960000D01*
X246726000Y-20040000D02*
X246726000Y-21578000D01*
X246886000Y-20040000D02*
X246886000Y-21450000D01*
X245205000Y-15799000D02*
X245205000Y-17960000D01*
X245405000Y-15833000D02*
X245405000Y-17960000D01*
X245766000Y-20040000D02*
X245766000Y-22074000D01*
X241579759Y-16846000D02*
X241579759Y-17476000D01*
X247966000Y-18367000D02*
X247966000Y-19633000D01*
X245045000Y-15782000D02*
X245045000Y-17960000D01*
X244885000Y-15772000D02*
X244885000Y-22228000D01*
X247926000Y-18198000D02*
X247926000Y-19802000D01*
X246566000Y-16310000D02*
X246566000Y-17960000D01*
X245806000Y-15939000D02*
X245806000Y-17960000D01*
X247566000Y-17350000D02*
X247566000Y-20650000D01*
X246286000Y-20040000D02*
X246286000Y-21856000D01*
X247366000Y-17056000D02*
X247366000Y-20944000D01*
X246926000Y-16584000D02*
X246926000Y-17960000D01*
X247326000Y-17005000D02*
X247326000Y-20995000D01*
X246966000Y-16620000D02*
X246966000Y-17960000D01*
X245566000Y-15869000D02*
X245566000Y-17960000D01*
X247886000Y-18060000D02*
X247886000Y-19940000D01*
X244925000Y-15773000D02*
X244925000Y-22227000D01*
X245205000Y-20040000D02*
X245205000Y-22201000D01*
X245846000Y-20040000D02*
X245846000Y-22047000D01*
X245085000Y-15785000D02*
X245085000Y-17960000D01*
X247606000Y-17419000D02*
X247606000Y-20581000D01*
X247206000Y-16863000D02*
X247206000Y-21137000D01*
X246966000Y-20040000D02*
X246966000Y-21380000D01*
X245886000Y-20040000D02*
X245886000Y-22033000D01*
X246086000Y-20040000D02*
X246086000Y-21952000D01*
X241264759Y-17161000D02*
X241894759Y-17161000D01*
X245245000Y-15805000D02*
X245245000Y-17960000D01*
X246126000Y-16066000D02*
X246126000Y-17960000D01*
X246366000Y-16188000D02*
X246366000Y-17960000D01*
X246606000Y-20040000D02*
X246606000Y-21664000D01*
X244965000Y-15776000D02*
X244965000Y-22224000D01*
X245165000Y-20040000D02*
X245165000Y-22206000D01*
X245726000Y-20040000D02*
X245726000Y-22086000D01*
X246166000Y-16084000D02*
X246166000Y-17960000D01*
X245886000Y-15967000D02*
X245886000Y-17960000D01*
X247166000Y-16818000D02*
X247166000Y-21182000D01*
X245325000Y-15818000D02*
X245325000Y-17960000D01*
X246886000Y-16550000D02*
X246886000Y-17960000D01*
X248035000Y-19000000D02*
G75*
G03*
X248035000Y-19000000I-3270000J0D01*
G01*
%TO.C,Loop2*%
X126885000Y-36800000D02*
X126185000Y-37200000D01*
X122585000Y-38290000D02*
X122585000Y-23010000D01*
X126885000Y-36400000D02*
X126185000Y-36400000D01*
X122585000Y-23010000D02*
X130365000Y-23010000D01*
X130585000Y-36170000D02*
X130585000Y-38510000D01*
X130365000Y-38270000D02*
X130365000Y-23010000D01*
X130585000Y-38510000D02*
X128395000Y-38510000D01*
X126185000Y-37600000D02*
X126885000Y-37600000D01*
X126885000Y-37600000D02*
X126885000Y-36400000D01*
X126185000Y-36400000D02*
X126185000Y-37600000D01*
X122585000Y-38290000D02*
X130365000Y-38290000D01*
%TO.C,D1*%
X9725000Y-35764000D02*
X9725000Y-35920000D01*
X9725000Y-38080000D02*
X9725000Y-38236000D01*
X9725000Y-38235516D02*
G75*
G03*
X12957335Y-38078608I1560000J1235516D01*
G01*
X12957335Y-35921392D02*
G75*
G03*
X9725000Y-35764484I-1672335J-1078608D01*
G01*
X10244039Y-38080000D02*
G75*
G03*
X12326130Y-38079837I1040961J1080000D01*
G01*
X12326130Y-35920163D02*
G75*
G03*
X10244039Y-35920000I-1041130J-1079837D01*
G01*
%TO.C,R2*%
X6095000Y-32620000D02*
X6095000Y-36460000D01*
X7935000Y-32620000D02*
X7935000Y-36460000D01*
%TO.C,L3-In*%
X167235000Y-5700000D02*
X167235000Y-9300000D01*
X153545000Y-23950000D02*
X153545000Y-21030000D01*
X167235000Y-12000000D02*
X167235000Y-15600000D01*
X153545000Y-21030000D02*
X148795000Y-21030000D01*
X148795000Y-15600000D02*
X148795000Y-12000000D01*
X162485000Y-23950000D02*
X162485000Y-21030000D01*
X167235000Y-180000D02*
X148795000Y-180000D01*
X148795000Y-180000D02*
X148795000Y-2900000D01*
X167235000Y-18400000D02*
X167235000Y-21030000D01*
X167235000Y-21030000D02*
X162485000Y-21030000D01*
X162445000Y-23950000D02*
X153545000Y-23950000D01*
X148795000Y-21030000D02*
X148795000Y-18400000D01*
X167235000Y-180000D02*
X167235000Y-2900000D01*
X148795000Y-9300000D02*
X148795000Y-5700000D01*
%TO.C,D8*%
X134485000Y-31870000D02*
X131545000Y-31870000D01*
X131545000Y-31090000D02*
X131545000Y-36530000D01*
X131545000Y-36530000D02*
X131675000Y-36530000D01*
X134485000Y-32110000D02*
X131545000Y-32110000D01*
X134485000Y-31990000D02*
X131545000Y-31990000D01*
X131675000Y-31090000D02*
X131545000Y-31090000D01*
X134355000Y-31090000D02*
X134485000Y-31090000D01*
X134485000Y-36530000D02*
X134355000Y-36530000D01*
X134485000Y-31090000D02*
X134485000Y-36530000D01*
%TO.C,D6*%
X92485000Y-32110000D02*
X89545000Y-32110000D01*
X89545000Y-31090000D02*
X89545000Y-36530000D01*
X92485000Y-31990000D02*
X89545000Y-31990000D01*
X92485000Y-36530000D02*
X92355000Y-36530000D01*
X92485000Y-31090000D02*
X92485000Y-36530000D01*
X92355000Y-31090000D02*
X92485000Y-31090000D01*
X92485000Y-31870000D02*
X89545000Y-31870000D01*
X89545000Y-36530000D02*
X89675000Y-36530000D01*
X89675000Y-31090000D02*
X89545000Y-31090000D01*
%TO.C,D7*%
X135725000Y-35764000D02*
X135725000Y-35920000D01*
X135725000Y-38080000D02*
X135725000Y-38236000D01*
X138326130Y-35920163D02*
G75*
G03*
X136244039Y-35920000I-1041130J-1079837D01*
G01*
X136244039Y-38080000D02*
G75*
G03*
X138326130Y-38079837I1040961J1080000D01*
G01*
X138957335Y-35921392D02*
G75*
G03*
X135725000Y-35764484I-1672335J-1078608D01*
G01*
X135725000Y-38235516D02*
G75*
G03*
X138957335Y-38078608I1560000J1235516D01*
G01*
%TO.C,R6*%
X99935000Y-32620000D02*
X99935000Y-36460000D01*
X98095000Y-32620000D02*
X98095000Y-36460000D01*
%TO.C,D11*%
X219725000Y-38540000D02*
X219725000Y-38696000D01*
X219725000Y-36224000D02*
X219725000Y-36380000D01*
X219725000Y-38695516D02*
G75*
G03*
X222957335Y-38538608I1560000J1235516D01*
G01*
X220244039Y-38540000D02*
G75*
G03*
X222326130Y-38539837I1040961J1080000D01*
G01*
X222957335Y-36381392D02*
G75*
G03*
X219725000Y-36224484I-1672335J-1078608D01*
G01*
X222326130Y-36380163D02*
G75*
G03*
X220244039Y-36380000I-1041130J-1079837D01*
G01*
%TO.C,Q5*%
X177165000Y-29470000D02*
X177165000Y-33070000D01*
X177176522Y-33108478D02*
G75*
G03*
X181615000Y-31270000I1838478J1838478D01*
G01*
X181615001Y-31270000D02*
G75*
G03*
X177176522Y-29431522I-2600001J0D01*
G01*
%TO.C,J12*%
X27890000Y-36000000D02*
X28390000Y-36000000D01*
X35110000Y-36000000D02*
X35610000Y-36000000D01*
X35110000Y-34790000D02*
X35110000Y-36000000D01*
X27590000Y-36110000D02*
X27590000Y-38610000D01*
X27890000Y-38310000D02*
X35610000Y-38310000D01*
X28390000Y-36000000D02*
X28390000Y-34790000D01*
X35610000Y-38310000D02*
X35610000Y-34290000D01*
X27590000Y-38610000D02*
X30090000Y-38610000D01*
X35610000Y-36810000D02*
X34610000Y-36810000D01*
X27890000Y-36810000D02*
X28890000Y-36810000D01*
X28390000Y-34790000D02*
X35110000Y-34790000D01*
X35610000Y-34290000D02*
X27890000Y-34290000D01*
X28890000Y-36810000D02*
X28890000Y-38310000D01*
X34610000Y-36810000D02*
X34610000Y-38310000D01*
X27890000Y-34290000D02*
X27890000Y-38310000D01*
%TO.C,Out*%
X27545000Y-21030000D02*
X22795000Y-21030000D01*
X41235000Y-21030000D02*
X36485000Y-21030000D01*
X27545000Y-23950000D02*
X27545000Y-21030000D01*
X22795000Y-9300000D02*
X22795000Y-5700000D01*
X41235000Y-18400000D02*
X41235000Y-21030000D01*
X22795000Y-21030000D02*
X22795000Y-18400000D01*
X36485000Y-23950000D02*
X36485000Y-21030000D01*
X36445000Y-23950000D02*
X27545000Y-23950000D01*
X22795000Y-180000D02*
X22795000Y-2900000D01*
X41235000Y-180000D02*
X22795000Y-180000D01*
X41235000Y-12000000D02*
X41235000Y-15600000D01*
X41235000Y-180000D02*
X41235000Y-2900000D01*
X22795000Y-15600000D02*
X22795000Y-12000000D01*
X41235000Y-5700000D02*
X41235000Y-9300000D01*
%TO.C,R12*%
X224095000Y-32620000D02*
X224095000Y-36460000D01*
X225935000Y-32620000D02*
X225935000Y-36460000D01*
%TO.C,D5*%
X93725000Y-35764000D02*
X93725000Y-35920000D01*
X93725000Y-38080000D02*
X93725000Y-38236000D01*
X93725000Y-38235516D02*
G75*
G03*
X96957335Y-38078608I1560000J1235516D01*
G01*
X94244039Y-38080000D02*
G75*
G03*
X96326130Y-38079837I1040961J1080000D01*
G01*
X96957335Y-35921392D02*
G75*
G03*
X93725000Y-35764484I-1672335J-1078608D01*
G01*
X96326130Y-35920163D02*
G75*
G03*
X94244039Y-35920000I-1041130J-1079837D01*
G01*
%TD*%
M02*
