M48
INCH
T1C0.0157
T2C0.0276
T3C0.0295
T4C0.0315
T5C0.0354
T6C0.0394
T7C0.0433
T8C0.0551
%
G90
G05
T1
X0.8268Y-0.9449
X3.1496Y-0.9055
T2
X0.1581Y-1.2598
X0.1581Y-1.4598
X0.2762Y-1.2598
X0.2762Y-1.4598
X2.2447Y-1.2598
X2.2447Y-1.4598
X2.3628Y-1.2598
X2.3628Y-1.4598
X3.8982Y-1.2598
X3.8982Y-1.4598
X4.0163Y-1.2598
X4.0163Y-1.4598
X5.5518Y-1.2598
X5.5518Y-1.4598
X5.6699Y-1.2598
X5.6699Y-1.4598
X7.2053Y-1.2598
X7.2053Y-1.4598
X7.3234Y-1.2598
X7.3234Y-1.4598
X8.8589Y-1.2598
X8.8589Y-1.4598
X8.977Y-1.2598
X8.977Y-1.4598
T3
X0.4337Y-1.1811
X0.4337Y-1.2311
X0.4337Y-1.2811
X2.0872Y-1.1811
X2.0872Y-1.2311
X2.0872Y-1.2811
X3.7407Y-1.1811
X3.7407Y-1.2311
X3.7407Y-1.2811
X5.3943Y-1.1811
X5.3943Y-1.2311
X5.3943Y-1.2811
X7.0478Y-1.1811
X7.0478Y-1.2311
X7.0478Y-1.2811
X8.7014Y-1.1811
X8.7014Y-1.2311
X8.7014Y-1.2811
T4
X0.7455Y-1.0567
X0.7455Y-1.1567
X0.7455Y-1.2567
X0.7455Y-1.4567
X0.9455Y-1.0567
X0.9455Y-1.1567
X0.9455Y-1.2567
X0.9455Y-1.4567
X1.5722Y-1.0567
X1.5722Y-1.1567
X1.5722Y-1.2567
X1.5722Y-1.4567
X1.7722Y-1.0567
X1.7722Y-1.1567
X1.7722Y-1.2567
X1.7722Y-1.4567
X3.2258Y-1.0567
X3.2258Y-1.1567
X3.2258Y-1.2567
X3.2258Y-1.4567
X3.4258Y-1.0567
X3.4258Y-1.1567
X3.4258Y-1.2567
X3.4258Y-1.4567
X4.8793Y-1.0567
X4.8793Y-1.1567
X4.8793Y-1.2567
X4.8793Y-1.4567
X5.0793Y-1.0567
X5.0793Y-1.1567
X5.0793Y-1.2567
X5.0793Y-1.4567
X6.5329Y-1.0567
X6.5329Y-1.1567
X6.5329Y-1.2567
X6.5329Y-1.4567
X6.7329Y-1.0567
X6.7329Y-1.1567
X6.7329Y-1.2567
X6.7329Y-1.4567
X8.1864Y-1.0567
X8.1864Y-1.1567
X8.1864Y-1.2567
X8.1864Y-1.4567
X8.3864Y-1.0567
X8.3864Y-1.1567
X8.3864Y-1.2567
X8.3864Y-1.4567
X9.5872Y-0.748
X9.6856Y-0.748
X9.7644Y-0.9252
X9.7644Y-1.0236
T5
X0.3943Y-1.4567
X0.4943Y-1.4567
X2.0478Y-1.4567
X2.1478Y-1.4567
X3.7014Y-1.4567
X3.8014Y-1.4567
X5.3549Y-1.4567
X5.4549Y-1.4567
X7.0085Y-1.4567
X7.1085Y-1.4567
X8.662Y-1.4748
X8.762Y-1.4748
T6
X1.2008Y-1.4173
X1.2992Y-1.4173
X4.3307Y-1.4173
X4.4291Y-1.4173
X7.6575Y-1.4173
X7.7559Y-1.4173
X9.2126Y-1.4173
X9.311Y-1.4173
T7
X0.6108Y-1.1811
X0.6108Y-1.4811
X1.9297Y-1.1811
X1.9297Y-1.4811
X3.5833Y-1.1811
X3.5833Y-1.4811
X5.2368Y-1.1811
X5.2368Y-1.4811
X6.8904Y-1.1811
X6.8904Y-1.4811
X8.5439Y-1.1811
X8.5439Y-1.4811
X9.2132Y-0.6661
X9.2132Y-1.0661
X9.9634Y-0.8055
X9.9634Y-0.9055
X9.9634Y-1.0055
T8
X0.1142Y-0.1693
X0.1142Y-0.4193
X0.1142Y-0.6693
X0.7531Y-0.1693
X0.7531Y-0.4193
X0.7531Y-0.6693
X0.9409Y-0.1693
X0.9409Y-0.4193
X0.9409Y-0.6693
X1.5799Y-0.1693
X1.5799Y-0.4193
X1.5799Y-0.6693
X1.7677Y-0.1693
X1.7677Y-0.4193
X1.7677Y-0.6693
X2.4067Y-0.1693
X2.4067Y-0.4193
X2.4067Y-0.6693
X2.5945Y-0.1693
X2.5945Y-0.4193
X2.5945Y-0.6693
X3.2335Y-0.1693
X3.2335Y-0.4193
X3.2335Y-0.6693
X3.4213Y-0.1693
X3.4213Y-0.4193
X3.4213Y-0.6693
X4.0602Y-0.1693
X4.0602Y-0.4193
X4.0602Y-0.6693
X4.248Y-0.1693
X4.248Y-0.4193
X4.248Y-0.6693
X4.887Y-0.1693
X4.887Y-0.4193
X4.887Y-0.6693
X5.0748Y-0.1693
X5.0748Y-0.4193
X5.0748Y-0.6693
X5.7138Y-0.1693
X5.7138Y-0.4193
X5.7138Y-0.6693
X5.9016Y-0.1693
X5.9016Y-0.4193
X5.9016Y-0.6693
X6.5406Y-0.1693
X6.5406Y-0.4193
X6.5406Y-0.6693
X6.7283Y-0.1693
X6.7283Y-0.4193
X6.7283Y-0.6693
X7.3673Y-0.1693
X7.3673Y-0.4193
X7.3673Y-0.6693
X7.5551Y-0.1693
X7.5551Y-0.4193
X7.5551Y-0.6693
X8.1941Y-0.1693
X8.1941Y-0.4193
X8.1941Y-0.6693
X8.3819Y-0.1693
X8.3819Y-0.4193
X8.3819Y-0.6693
X9.0209Y-0.1693
X9.0209Y-0.4193
X9.0209Y-0.6693
T6
G00X9.2233Y-0.3937
M15
G01X9.2233Y-0.4724
M16
G05
G00X9.4477Y-0.315
M15
G01X9.369Y-0.315
M16
G05
G00X9.4477Y-0.5512
M15
G01X9.369Y-0.5512
M16
G05
G00X9.6974Y-0.3937
M15
G01X9.6974Y-0.4724
M16
G05
G00X9.9219Y-0.315
M15
G01X9.8431Y-0.315
M16
G05
G00X9.9219Y-0.5512
M15
G01X9.8431Y-0.5512
M16
G05
T0
M30
